<?xml version="1.0" encoding="UTF-8" standalone="no"?>
<!DOCTYPE svg PUBLIC "-//W3C//DTD SVG 1.1//EN"
 "http://www.w3.org/Graphics/SVG/1.1/DTD/svg11.dtd">
<!-- Generated by graphviz version 2.38.0 (20140413.2041)
 -->
<!-- Title: LadderQueue Pages: 1 -->
<svg width="475pt" height="2126pt"
 viewBox="0.00 0.00 475.00 2126.00" xmlns="http://www.w3.org/2000/svg" xmlns:xlink="http://www.w3.org/1999/xlink">
<g id="graph0" class="graph" transform="scale(1 1) rotate(0) translate(4 2122)">
<title>LadderQueue</title>
<polygon fill="white" stroke="none" points="-4,4 -4,-2122 471,-2122 471,4 -4,4"/>
<!-- Node1 -->
<g id="node1" class="node"><title>Node1</title>
<polygon fill="#bfbfbf" stroke="black" points="191,-0.5 191,-453.5 337,-453.5 337,-0.5 191,-0.5"/>
<text text-anchor="middle" x="264" y="-441.5" font-family="Helvetica,sans-Serif" font-size="10.00">LadderQueue</text>
<polyline fill="none" stroke="black" points="191,-434.5 337,-434.5 "/>
<text text-anchor="start" x="199" y="-422.5" font-family="Helvetica,sans-Serif" font-size="10.00">+ MaxRungs</text>
<text text-anchor="start" x="199" y="-411.5" font-family="Helvetica,sans-Serif" font-size="10.00">&#45; nRung</text>
<text text-anchor="start" x="199" y="-400.5" font-family="Helvetica,sans-Serif" font-size="10.00">&#45; ladderEventCount</text>
<polyline fill="none" stroke="black" points="191,-393.5 337,-393.5 "/>
<text text-anchor="start" x="199" y="-381.5" font-family="Helvetica,sans-Serif" font-size="10.00">+ LadderQueue()</text>
<text text-anchor="start" x="199" y="-370.5" font-family="Helvetica,sans-Serif" font-size="10.00">+ ~LadderQueue()</text>
<text text-anchor="start" x="199" y="-359.5" font-family="Helvetica,sans-Serif" font-size="10.00">+ enqueue()</text>
<text text-anchor="start" x="199" y="-348.5" font-family="Helvetica,sans-Serif" font-size="10.00">+ dequeue()</text>
<text text-anchor="start" x="199" y="-337.5" font-family="Helvetica,sans-Serif" font-size="10.00">+ remove_after()</text>
<text text-anchor="start" x="199" y="-326.5" font-family="Helvetica,sans-Serif" font-size="10.00">+ empty()</text>
<text text-anchor="start" x="199" y="-315.5" font-family="Helvetica,sans-Serif" font-size="10.00">+ addAgent()</text>
<text text-anchor="start" x="199" y="-304.5" font-family="Helvetica,sans-Serif" font-size="10.00">+ removeAgent()</text>
<text text-anchor="start" x="199" y="-293.5" font-family="Helvetica,sans-Serif" font-size="10.00">+ front()</text>
<text text-anchor="start" x="199" y="-282.5" font-family="Helvetica,sans-Serif" font-size="10.00">+ dequeueNextAgentEvents()</text>
<text text-anchor="start" x="199" y="-271.5" font-family="Helvetica,sans-Serif" font-size="10.00">+ enqueue()</text>
<text text-anchor="start" x="199" y="-260.5" font-family="Helvetica,sans-Serif" font-size="10.00">+ enqueue()</text>
<text text-anchor="start" x="199" y="-249.5" font-family="Helvetica,sans-Serif" font-size="10.00">+ eraseAfter()</text>
<text text-anchor="start" x="199" y="-238.5" font-family="Helvetica,sans-Serif" font-size="10.00">+ prettyPrint()</text>
<text text-anchor="start" x="199" y="-227.5" font-family="Helvetica,sans-Serif" font-size="10.00">+ haveBefore()</text>
<text text-anchor="start" x="199" y="-216.5" font-family="Helvetica,sans-Serif" font-size="10.00">+ reportStats()</text>
<text text-anchor="start" x="199" y="-205.5" font-family="Helvetica,sans-Serif" font-size="10.00"># recurseRung()</text>
<text text-anchor="start" x="199" y="-194.5" font-family="Helvetica,sans-Serif" font-size="10.00"># populateBottom()</text>
<text text-anchor="start" x="199" y="-183.5" font-family="Helvetica,sans-Serif" font-size="10.00"># createRungFromBottom()</text>
<text text-anchor="start" x="199" y="-172.5" font-family="Helvetica,sans-Serif" font-size="10.00">&#45; LQ_STATS()</text>
<text text-anchor="start" x="199" y="-161.5" font-family="Helvetica,sans-Serif" font-size="10.00">&#45; LQ_STATS()</text>
<text text-anchor="start" x="199" y="-150.5" font-family="Helvetica,sans-Serif" font-size="10.00">&#45; LQ_STATS()</text>
<text text-anchor="start" x="199" y="-139.5" font-family="Helvetica,sans-Serif" font-size="10.00">&#45; LQ_STATS()</text>
<text text-anchor="start" x="199" y="-128.5" font-family="Helvetica,sans-Serif" font-size="10.00">&#45; LQ_STATS()</text>
<text text-anchor="start" x="199" y="-117.5" font-family="Helvetica,sans-Serif" font-size="10.00">&#45; LQ_STATS()</text>
<text text-anchor="start" x="199" y="-106.5" font-family="Helvetica,sans-Serif" font-size="10.00">&#45; LQ_STATS()</text>
<text text-anchor="start" x="199" y="-95.5" font-family="Helvetica,sans-Serif" font-size="10.00">&#45; LQ_STATS()</text>
<text text-anchor="start" x="199" y="-84.5" font-family="Helvetica,sans-Serif" font-size="10.00">&#45; LQ_STATS()</text>
<text text-anchor="start" x="199" y="-73.5" font-family="Helvetica,sans-Serif" font-size="10.00">&#45; LQ_STATS()</text>
<text text-anchor="start" x="199" y="-62.5" font-family="Helvetica,sans-Serif" font-size="10.00">&#45; LQ_STATS()</text>
<text text-anchor="start" x="199" y="-51.5" font-family="Helvetica,sans-Serif" font-size="10.00">&#45; LQ_STATS()</text>
<text text-anchor="start" x="199" y="-40.5" font-family="Helvetica,sans-Serif" font-size="10.00">&#45; LQ_STATS()</text>
<text text-anchor="start" x="199" y="-29.5" font-family="Helvetica,sans-Serif" font-size="10.00">&#45; LQ_STATS()</text>
<text text-anchor="start" x="199" y="-18.5" font-family="Helvetica,sans-Serif" font-size="10.00">&#45; LQ_STATS()</text>
<text text-anchor="start" x="199" y="-7.5" font-family="Helvetica,sans-Serif" font-size="10.00">&#45; LQ_STATS()</text>
</g>
<!-- Node2 -->
<g id="node2" class="node"><title>Node2</title>
<g id="a_node2"><a xlink:href="$classEventQueue.html" xlink:title="Base class for the different queues used by the different Schedulers. ">
<polygon fill="white" stroke="black" points="0,-501.5 0,-701.5 146,-701.5 146,-501.5 0,-501.5"/>
<text text-anchor="middle" x="73" y="-689.5" font-family="Helvetica,sans-Serif" font-size="10.00">EventQueue</text>
<polyline fill="none" stroke="black" points="0,-682.5 146,-682.5 "/>
<text text-anchor="middle" x="73" y="-670.5" font-family="Helvetica,sans-Serif" font-size="10.00"> </text>
<polyline fill="none" stroke="black" points="0,-663.5 146,-663.5 "/>
<text text-anchor="start" x="8" y="-651.5" font-family="Helvetica,sans-Serif" font-size="10.00">+ addAgent()</text>
<text text-anchor="start" x="8" y="-640.5" font-family="Helvetica,sans-Serif" font-size="10.00">+ removeAgent()</text>
<text text-anchor="start" x="8" y="-629.5" font-family="Helvetica,sans-Serif" font-size="10.00">+ empty()</text>
<text text-anchor="start" x="8" y="-618.5" font-family="Helvetica,sans-Serif" font-size="10.00">+ front()</text>
<text text-anchor="start" x="8" y="-607.5" font-family="Helvetica,sans-Serif" font-size="10.00">+ dequeueNextAgentEvents()</text>
<text text-anchor="start" x="8" y="-596.5" font-family="Helvetica,sans-Serif" font-size="10.00">+ enqueue()</text>
<text text-anchor="start" x="8" y="-585.5" font-family="Helvetica,sans-Serif" font-size="10.00">+ enqueue()</text>
<text text-anchor="start" x="8" y="-574.5" font-family="Helvetica,sans-Serif" font-size="10.00">+ eraseAfter()</text>
<text text-anchor="start" x="8" y="-563.5" font-family="Helvetica,sans-Serif" font-size="10.00">+ prettyPrint()</text>
<text text-anchor="start" x="8" y="-552.5" font-family="Helvetica,sans-Serif" font-size="10.00">+ reportStats()</text>
<text text-anchor="start" x="8" y="-541.5" font-family="Helvetica,sans-Serif" font-size="10.00">+ ~EventQueue()</text>
<text text-anchor="start" x="8" y="-530.5" font-family="Helvetica,sans-Serif" font-size="10.00">+ getName()</text>
<text text-anchor="start" x="8" y="-519.5" font-family="Helvetica,sans-Serif" font-size="10.00">+ fixHeap()</text>
<text text-anchor="start" x="8" y="-508.5" font-family="Helvetica,sans-Serif" font-size="10.00"># EventQueue()</text>
</a>
</g>
</g>
<!-- Node2&#45;&gt;Node1 -->
<g id="edge1" class="edge"><title>Node2&#45;&gt;Node1</title>
<path fill="none" stroke="midnightblue" d="M128.567,-492.13C148.057,-454.119 170.254,-410.83 190.958,-370.452"/>
<polygon fill="none" stroke="midnightblue" points="125.382,-490.671 123.934,-501.166 131.611,-493.865 125.382,-490.671"/>
</g>
<!-- Node3 -->
<g id="node3" class="node"><title>Node3</title>
<g id="a_node3"><a xlink:title="STL class. ">
<polygon fill="white" stroke="#bfbfbf" points="43,-1148.5 43,-1205.5 103,-1205.5 103,-1148.5 43,-1148.5"/>
<text text-anchor="middle" x="73" y="-1193.5" font-family="Helvetica,sans-Serif" font-size="10.00">std::string</text>
<polyline fill="none" stroke="#bfbfbf" points="43,-1186.5 103,-1186.5 "/>
<text text-anchor="middle" x="73" y="-1174.5" font-family="Helvetica,sans-Serif" font-size="10.00"> </text>
<polyline fill="none" stroke="#bfbfbf" points="43,-1167.5 103,-1167.5 "/>
<text text-anchor="middle" x="73" y="-1155.5" font-family="Helvetica,sans-Serif" font-size="10.00"> </text>
</a>
</g>
</g>
<!-- Node3&#45;&gt;Node2 -->
<g id="edge2" class="edge"><title>Node3&#45;&gt;Node2</title>
<path fill="none" stroke="#404040" d="M73,-1148.34C73,-1071.07 73,-849.728 73,-713.806"/>
<polygon fill="none" stroke="#404040" points="73.0001,-713.739 69,-707.739 73,-701.739 77,-707.739 73.0001,-713.739"/>
<text text-anchor="middle" x="88.5" y="-856.5" font-family="Helvetica,sans-Serif" font-size="10.00"> &#45;name</text>
</g>
<!-- Node4 -->
<g id="node4" class="node"><title>Node4</title>
<g id="a_node4"><a xlink:title="STL class. ">
<polygon fill="white" stroke="#bfbfbf" points="25.5,-1597.5 25.5,-1665.5 120.5,-1665.5 120.5,-1597.5 25.5,-1597.5"/>
<text text-anchor="start" x="33.5" y="-1653.5" font-family="Helvetica,sans-Serif" font-size="10.00">std::basic_string&lt;</text>
<text text-anchor="middle" x="73" y="-1642.5" font-family="Helvetica,sans-Serif" font-size="10.00"> char &gt;</text>
<polyline fill="none" stroke="#bfbfbf" points="25.5,-1635.5 120.5,-1635.5 "/>
<text text-anchor="middle" x="73" y="-1623.5" font-family="Helvetica,sans-Serif" font-size="10.00"> </text>
<polyline fill="none" stroke="#bfbfbf" points="25.5,-1616.5 120.5,-1616.5 "/>
<text text-anchor="middle" x="73" y="-1604.5" font-family="Helvetica,sans-Serif" font-size="10.00"> </text>
</a>
</g>
</g>
<!-- Node4&#45;&gt;Node3 -->
<g id="edge3" class="edge"><title>Node4&#45;&gt;Node3</title>
<path fill="none" stroke="midnightblue" d="M73,-1587.13C73,-1494.98 73,-1281.92 73,-1205.72"/>
<polygon fill="none" stroke="midnightblue" points="69.5001,-1587.23 73,-1597.23 76.5001,-1587.23 69.5001,-1587.23"/>
</g>
<!-- Node5 -->
<g id="node5" class="node"><title>Node5</title>
<polygon fill="white" stroke="#bfbfbf" points="164,-573 164,-630 268,-630 268,-573 164,-573"/>
<text text-anchor="middle" x="216" y="-618" font-family="Helvetica,sans-Serif" font-size="10.00">std::vector&lt; Rung &gt;</text>
<polyline fill="none" stroke="#bfbfbf" points="164,-611 268,-611 "/>
<text text-anchor="middle" x="216" y="-599" font-family="Helvetica,sans-Serif" font-size="10.00"> </text>
<polyline fill="none" stroke="#bfbfbf" points="164,-592 268,-592 "/>
<text text-anchor="middle" x="216" y="-580" font-family="Helvetica,sans-Serif" font-size="10.00"> </text>
</g>
<!-- Node5&#45;&gt;Node1 -->
<g id="edge4" class="edge"><title>Node5&#45;&gt;Node1</title>
<path fill="none" stroke="#404040" d="M219.569,-572.806C222.773,-547.94 227.818,-508.791 233.377,-465.65"/>
<polygon fill="none" stroke="#404040" points="233.384,-465.592 230.184,-459.13 234.918,-453.691 238.118,-460.153 233.384,-465.592"/>
<text text-anchor="middle" x="248.5" y="-475" font-family="Helvetica,sans-Serif" font-size="10.00"> &#45;ladder</text>
</g>
<!-- Node6 -->
<g id="node6" class="node"><title>Node6</title>
<g id="a_node6"><a xlink:href="$classRung.html" xlink:title="Class that represents one rung in the ladder queue. ">
<polygon fill="white" stroke="black" points="146,-1016.5 146,-1337.5 268,-1337.5 268,-1016.5 146,-1016.5"/>
<text text-anchor="middle" x="207" y="-1325.5" font-family="Helvetica,sans-Serif" font-size="10.00">Rung</text>
<polyline fill="none" stroke="black" points="146,-1318.5 268,-1318.5 "/>
<text text-anchor="start" x="154" y="-1306.5" font-family="Helvetica,sans-Serif" font-size="10.00">&#45; rStartTS</text>
<text text-anchor="start" x="154" y="-1295.5" font-family="Helvetica,sans-Serif" font-size="10.00">&#45; rCurrTS</text>
<text text-anchor="start" x="154" y="-1284.5" font-family="Helvetica,sans-Serif" font-size="10.00">&#45; bucketWidth</text>
<text text-anchor="start" x="154" y="-1273.5" font-family="Helvetica,sans-Serif" font-size="10.00">&#45; currBucket</text>
<text text-anchor="start" x="154" y="-1262.5" font-family="Helvetica,sans-Serif" font-size="10.00">&#45; rungEventCount</text>
<polyline fill="none" stroke="black" points="146,-1255.5 268,-1255.5 "/>
<text text-anchor="start" x="154" y="-1243.5" font-family="Helvetica,sans-Serif" font-size="10.00">+ Rung()</text>
<text text-anchor="start" x="154" y="-1232.5" font-family="Helvetica,sans-Serif" font-size="10.00">+ Rung()</text>
<text text-anchor="start" x="154" y="-1221.5" font-family="Helvetica,sans-Serif" font-size="10.00">+ Rung()</text>
<text text-anchor="start" x="154" y="-1210.5" font-family="Helvetica,sans-Serif" font-size="10.00">+ Rung()</text>
<text text-anchor="start" x="154" y="-1199.5" font-family="Helvetica,sans-Serif" font-size="10.00">+ Rung()</text>
<text text-anchor="start" x="154" y="-1188.5" font-family="Helvetica,sans-Serif" font-size="10.00">+ removeNextBucket()</text>
<text text-anchor="start" x="154" y="-1177.5" font-family="Helvetica,sans-Serif" font-size="10.00">+ empty()</text>
<text text-anchor="start" x="154" y="-1166.5" font-family="Helvetica,sans-Serif" font-size="10.00">+ enqueue()</text>
<text text-anchor="start" x="154" y="-1155.5" font-family="Helvetica,sans-Serif" font-size="10.00">+ getStartTime()</text>
<text text-anchor="start" x="154" y="-1144.5" font-family="Helvetica,sans-Serif" font-size="10.00">+ getBucketWidth()</text>
<text text-anchor="start" x="154" y="-1133.5" font-family="Helvetica,sans-Serif" font-size="10.00">+ getCurrTime()</text>
<text text-anchor="start" x="154" y="-1122.5" font-family="Helvetica,sans-Serif" font-size="10.00">+ getMaxRungTime()</text>
<text text-anchor="start" x="154" y="-1111.5" font-family="Helvetica,sans-Serif" font-size="10.00">+ canContain()</text>
<text text-anchor="start" x="154" y="-1100.5" font-family="Helvetica,sans-Serif" font-size="10.00">+ remove_after()</text>
<text text-anchor="start" x="154" y="-1089.5" font-family="Helvetica,sans-Serif" font-size="10.00">+ remove()</text>
<text text-anchor="start" x="154" y="-1078.5" font-family="Helvetica,sans-Serif" font-size="10.00">+ validateEventCounts()</text>
<text text-anchor="start" x="154" y="-1067.5" font-family="Helvetica,sans-Serif" font-size="10.00">+ prettyPrint()</text>
<text text-anchor="start" x="154" y="-1056.5" font-family="Helvetica,sans-Serif" font-size="10.00">+ updateStats()</text>
<text text-anchor="start" x="154" y="-1045.5" font-family="Helvetica,sans-Serif" font-size="10.00">+ isCurrBucketEmpty()</text>
<text text-anchor="start" x="154" y="-1034.5" font-family="Helvetica,sans-Serif" font-size="10.00">+ haveBefore()</text>
<text text-anchor="start" x="154" y="-1023.5" font-family="Helvetica,sans-Serif" font-size="10.00">&#45; LQ_STATS()</text>
</a>
</g>
</g>
<!-- Node6&#45;&gt;Node5 -->
<g id="edge5" class="edge"><title>Node6&#45;&gt;Node5</title>
<path fill="none" stroke="#404040" d="M209.507,-1016.25C211.513,-888.418 214.181,-718.393 215.376,-642.281"/>
<polygon fill="none" stroke="#404040" points="215.379,-642.039 211.474,-635.977 215.568,-630.04 219.473,-636.102 215.379,-642.039"/>
<text text-anchor="middle" x="239.5" y="-856.5" font-family="Helvetica,sans-Serif" font-size="10.00"> +elements</text>
</g>
<!-- Node7 -->
<g id="node7" class="node"><title>Node7</title>
<polygon fill="white" stroke="#bfbfbf" points="143,-1603 143,-1660 283,-1660 283,-1603 143,-1603"/>
<text text-anchor="middle" x="213" y="-1648" font-family="Helvetica,sans-Serif" font-size="10.00">std::vector&lt; VectorBucket &gt;</text>
<polyline fill="none" stroke="#bfbfbf" points="143,-1641 283,-1641 "/>
<text text-anchor="middle" x="213" y="-1629" font-family="Helvetica,sans-Serif" font-size="10.00"> </text>
<polyline fill="none" stroke="#bfbfbf" points="143,-1622 283,-1622 "/>
<text text-anchor="middle" x="213" y="-1610" font-family="Helvetica,sans-Serif" font-size="10.00"> </text>
</g>
<!-- Node7&#45;&gt;Node6 -->
<g id="edge6" class="edge"><title>Node7&#45;&gt;Node6</title>
<path fill="none" stroke="#404040" d="M206.62,-1602.85C205.125,-1595.17 203.75,-1586.8 203,-1579 195.801,-1504.15 195.388,-1421.09 197.316,-1350.06"/>
<polygon fill="none" stroke="#404040" points="197.322,-1349.85 193.5,-1343.74 197.674,-1337.86 201.496,-1343.97 197.322,-1349.85"/>
<text text-anchor="middle" x="229" y="-1465" font-family="Helvetica,sans-Serif" font-size="10.00"> &#45;bucketList</text>
</g>
<!-- Node8 -->
<g id="node8" class="node"><title>Node8</title>
<g id="a_node8"><a xlink:href="$classVectorBucket.html" xlink:title="A generic bucket that is used for both Top and Rungs of ladderQ. ">
<polygon fill="white" stroke="black" points="254.5,-1713.5 254.5,-2001.5 375.5,-2001.5 375.5,-1713.5 254.5,-1713.5"/>
<text text-anchor="middle" x="315" y="-1989.5" font-family="Helvetica,sans-Serif" font-size="10.00">VectorBucket</text>
<polyline fill="none" stroke="black" points="254.5,-1982.5 375.5,-1982.5 "/>
<text text-anchor="start" x="262.5" y="-1970.5" font-family="Helvetica,sans-Serif" font-size="10.00">&#45; count</text>
<polyline fill="none" stroke="black" points="254.5,-1963.5 375.5,-1963.5 "/>
<text text-anchor="start" x="262.5" y="-1951.5" font-family="Helvetica,sans-Serif" font-size="10.00">+ VectorBucket()</text>
<text text-anchor="start" x="262.5" y="-1940.5" font-family="Helvetica,sans-Serif" font-size="10.00">+ VectorBucket()</text>
<text text-anchor="start" x="262.5" y="-1929.5" font-family="Helvetica,sans-Serif" font-size="10.00">+ ~VectorBucket()</text>
<text text-anchor="start" x="262.5" y="-1918.5" font-family="Helvetica,sans-Serif" font-size="10.00">+ push_front()</text>
<text text-anchor="start" x="262.5" y="-1907.5" font-family="Helvetica,sans-Serif" font-size="10.00">+ front()</text>
<text text-anchor="start" x="262.5" y="-1896.5" font-family="Helvetica,sans-Serif" font-size="10.00">+ back()</text>
<text text-anchor="start" x="262.5" y="-1885.5" font-family="Helvetica,sans-Serif" font-size="10.00">+ pop_front()</text>
<text text-anchor="start" x="262.5" y="-1874.5" font-family="Helvetica,sans-Serif" font-size="10.00">+ push_back()</text>
<text text-anchor="start" x="262.5" y="-1863.5" font-family="Helvetica,sans-Serif" font-size="10.00">+ insert_after()</text>
<text text-anchor="start" x="262.5" y="-1852.5" font-family="Helvetica,sans-Serif" font-size="10.00">+ insert_after()</text>
<text text-anchor="start" x="262.5" y="-1841.5" font-family="Helvetica,sans-Serif" font-size="10.00">+ size()</text>
<text text-anchor="start" x="262.5" y="-1830.5" font-family="Helvetica,sans-Serif" font-size="10.00">+ empty()</text>
<text text-anchor="start" x="262.5" y="-1819.5" font-family="Helvetica,sans-Serif" font-size="10.00">+ begin()</text>
<text text-anchor="start" x="262.5" y="-1808.5" font-family="Helvetica,sans-Serif" font-size="10.00">+ cbegin()</text>
<text text-anchor="start" x="262.5" y="-1797.5" font-family="Helvetica,sans-Serif" font-size="10.00">+ rbegin()</text>
<text text-anchor="start" x="262.5" y="-1786.5" font-family="Helvetica,sans-Serif" font-size="10.00">+ end()</text>
<text text-anchor="start" x="262.5" y="-1775.5" font-family="Helvetica,sans-Serif" font-size="10.00">+ cend()</text>
<text text-anchor="start" x="262.5" y="-1764.5" font-family="Helvetica,sans-Serif" font-size="10.00">+ rend()</text>
<text text-anchor="start" x="262.5" y="-1753.5" font-family="Helvetica,sans-Serif" font-size="10.00">+ remove_after()</text>
<text text-anchor="start" x="262.5" y="-1742.5" font-family="Helvetica,sans-Serif" font-size="10.00">+ remove_after_sorted()</text>
<text text-anchor="start" x="262.5" y="-1731.5" font-family="Helvetica,sans-Serif" font-size="10.00">+ remove()</text>
<text text-anchor="start" x="262.5" y="-1720.5" font-family="Helvetica,sans-Serif" font-size="10.00">+ haveBefore()</text>
</a>
</g>
</g>
<!-- Node8&#45;&gt;Node7 -->
<g id="edge7" class="edge"><title>Node8&#45;&gt;Node7</title>
<path fill="none" stroke="#404040" d="M254.487,-1723.61C245.89,-1704.73 237.666,-1686.67 230.841,-1671.68"/>
<polygon fill="none" stroke="#404040" points="230.659,-1671.28 224.533,-1667.48 225.686,-1660.36 231.813,-1664.16 230.659,-1671.28"/>
<text text-anchor="middle" x="265.5" y="-1687" font-family="Helvetica,sans-Serif" font-size="10.00"> +elements</text>
</g>
<!-- Node10 -->
<g id="node10" class="node"><title>Node10</title>
<g id="a_node10"><a xlink:href="$classTop.html" xlink:title="The class that forms the Top rung of a ladder queue. ">
<polygon fill="white" stroke="black" points="264.5,-1356.5 264.5,-1578.5 365.5,-1578.5 365.5,-1356.5 264.5,-1356.5"/>
<text text-anchor="middle" x="315" y="-1566.5" font-family="Helvetica,sans-Serif" font-size="10.00">Top</text>
<polyline fill="none" stroke="black" points="264.5,-1559.5 365.5,-1559.5 "/>
<text text-anchor="start" x="272.5" y="-1547.5" font-family="Helvetica,sans-Serif" font-size="10.00">&#45; minTS</text>
<text text-anchor="start" x="272.5" y="-1536.5" font-family="Helvetica,sans-Serif" font-size="10.00">&#45; maxTS</text>
<text text-anchor="start" x="272.5" y="-1525.5" font-family="Helvetica,sans-Serif" font-size="10.00">&#45; topStart</text>
<polyline fill="none" stroke="black" points="264.5,-1518.5 365.5,-1518.5 "/>
<text text-anchor="start" x="272.5" y="-1506.5" font-family="Helvetica,sans-Serif" font-size="10.00">+ Top()</text>
<text text-anchor="start" x="272.5" y="-1495.5" font-family="Helvetica,sans-Serif" font-size="10.00">+ ~Top()</text>
<text text-anchor="start" x="272.5" y="-1484.5" font-family="Helvetica,sans-Serif" font-size="10.00">+ add()</text>
<text text-anchor="start" x="272.5" y="-1473.5" font-family="Helvetica,sans-Serif" font-size="10.00">+ empty()</text>
<text text-anchor="start" x="272.5" y="-1462.5" font-family="Helvetica,sans-Serif" font-size="10.00">+ getStartTime()</text>
<text text-anchor="start" x="272.5" y="-1451.5" font-family="Helvetica,sans-Serif" font-size="10.00">+ getMinTime()</text>
<text text-anchor="start" x="272.5" y="-1440.5" font-family="Helvetica,sans-Serif" font-size="10.00">+ getMaxTime()</text>
<text text-anchor="start" x="272.5" y="-1429.5" font-family="Helvetica,sans-Serif" font-size="10.00">+ contains()</text>
<text text-anchor="start" x="272.5" y="-1418.5" font-family="Helvetica,sans-Serif" font-size="10.00">+ getBucketWidth()</text>
<text text-anchor="start" x="272.5" y="-1407.5" font-family="Helvetica,sans-Serif" font-size="10.00">+ size()</text>
<text text-anchor="start" x="272.5" y="-1396.5" font-family="Helvetica,sans-Serif" font-size="10.00">+ remove_after()</text>
<text text-anchor="start" x="272.5" y="-1385.5" font-family="Helvetica,sans-Serif" font-size="10.00">+ remove()</text>
<text text-anchor="start" x="272.5" y="-1374.5" font-family="Helvetica,sans-Serif" font-size="10.00">+ haveBefore()</text>
<text text-anchor="start" x="272.5" y="-1363.5" font-family="Helvetica,sans-Serif" font-size="10.00"># reset()</text>
</a>
</g>
</g>
<!-- Node8&#45;&gt;Node10 -->
<g id="edge10" class="edge"><title>Node8&#45;&gt;Node10</title>
<path fill="none" stroke="#404040" d="M315,-1713.4C315,-1673.17 315,-1629.79 315,-1590.89"/>
<polygon fill="none" stroke="#404040" points="315,-1590.69 311,-1584.69 315,-1578.69 319,-1584.69 315,-1590.69"/>
<text text-anchor="middle" x="333" y="-1687" font-family="Helvetica,sans-Serif" font-size="10.00"> &#45;events</text>
</g>
<!-- Node11 -->
<g id="node11" class="node"><title>Node11</title>
<g id="a_node11"><a xlink:href="$classBottom.html" xlink:title="The bottom most rung of the Ladder queue. ">
<polygon fill="white" stroke="black" points="321,-720.5 321,-997.5 467,-997.5 467,-720.5 321,-720.5"/>
<text text-anchor="middle" x="394" y="-985.5" font-family="Helvetica,sans-Serif" font-size="10.00">Bottom</text>
<polyline fill="none" stroke="black" points="321,-978.5 467,-978.5 "/>
<text text-anchor="middle" x="394" y="-966.5" font-family="Helvetica,sans-Serif" font-size="10.00"> </text>
<polyline fill="none" stroke="black" points="321,-959.5 467,-959.5 "/>
<text text-anchor="start" x="329" y="-947.5" font-family="Helvetica,sans-Serif" font-size="10.00">+ enqueue()</text>
<text text-anchor="start" x="329" y="-936.5" font-family="Helvetica,sans-Serif" font-size="10.00">+ enqueue()</text>
<text text-anchor="start" x="329" y="-925.5" font-family="Helvetica,sans-Serif" font-size="10.00">+ pop_front()</text>
<text text-anchor="start" x="329" y="-914.5" font-family="Helvetica,sans-Serif" font-size="10.00">+ front()</text>
<text text-anchor="start" x="329" y="-903.5" font-family="Helvetica,sans-Serif" font-size="10.00">+ empty()</text>
<text text-anchor="start" x="329" y="-892.5" font-family="Helvetica,sans-Serif" font-size="10.00">+ getBucketWidth()</text>
<text text-anchor="start" x="329" y="-881.5" font-family="Helvetica,sans-Serif" font-size="10.00">+ remove_after()</text>
<text text-anchor="start" x="329" y="-870.5" font-family="Helvetica,sans-Serif" font-size="10.00">+ remove()</text>
<text text-anchor="start" x="329" y="-859.5" font-family="Helvetica,sans-Serif" font-size="10.00">+ dequeueNextAgentEvents()</text>
<text text-anchor="start" x="329" y="-848.5" font-family="Helvetica,sans-Serif" font-size="10.00">+ maxTime()</text>
<text text-anchor="start" x="329" y="-837.5" font-family="Helvetica,sans-Serif" font-size="10.00">+ findMinTime()</text>
<text text-anchor="start" x="329" y="-826.5" font-family="Helvetica,sans-Serif" font-size="10.00">+ validate()</text>
<text text-anchor="start" x="329" y="-815.5" font-family="Helvetica,sans-Serif" font-size="10.00">+ size()</text>
<text text-anchor="start" x="329" y="-804.5" font-family="Helvetica,sans-Serif" font-size="10.00">+ haveBefore()</text>
<text text-anchor="start" x="329" y="-793.5" font-family="Helvetica,sans-Serif" font-size="10.00">+ getTimeRange()</text>
<text text-anchor="start" x="329" y="-782.5" font-family="Helvetica,sans-Serif" font-size="10.00">+ compare()</text>
<text text-anchor="start" x="329" y="-771.5" font-family="Helvetica,sans-Serif" font-size="10.00">+ revCompare()</text>
<text text-anchor="start" x="329" y="-760.5" font-family="Helvetica,sans-Serif" font-size="10.00"># enqueue()</text>
<text text-anchor="start" x="329" y="-749.5" font-family="Helvetica,sans-Serif" font-size="10.00"># enqueue()</text>
<text text-anchor="start" x="329" y="-738.5" font-family="Helvetica,sans-Serif" font-size="10.00"># enqueue()</text>
<text text-anchor="start" x="329" y="-727.5" font-family="Helvetica,sans-Serif" font-size="10.00"># enqueue()</text>
</a>
</g>
</g>
<!-- Node8&#45;&gt;Node11 -->
<g id="edge12" class="edge"><title>Node8&#45;&gt;Node11</title>
<path fill="none" stroke="#404040" d="M351.151,-1713.1C352.49,-1707 353.78,-1700.94 355,-1695 403.448,-1459.12 405.475,-1178.21 400.905,-1009.75"/>
<polygon fill="none" stroke="#404040" points="400.9,-1009.56 396.731,-1003.68 400.558,-997.568 404.727,-1003.45 400.9,-1009.56"/>
<text text-anchor="middle" x="381.5" y="-1629" font-family="Helvetica,sans-Serif" font-size="10.00"> &#45;sel</text>
</g>
<!-- Node9 -->
<g id="node9" class="node"><title>Node9</title>
<polygon fill="white" stroke="#bfbfbf" points="264,-2049.5 264,-2117.5 366,-2117.5 366,-2049.5 264,-2049.5"/>
<text text-anchor="start" x="272" y="-2105.5" font-family="Helvetica,sans-Serif" font-size="10.00">std::vector&lt; muse::</text>
<text text-anchor="middle" x="315" y="-2094.5" font-family="Helvetica,sans-Serif" font-size="10.00">Event * &gt;</text>
<polyline fill="none" stroke="#bfbfbf" points="264,-2087.5 366,-2087.5 "/>
<text text-anchor="start" x="272" y="-2075.5" font-family="Helvetica,sans-Serif" font-size="10.00">+ elements</text>
<polyline fill="none" stroke="#bfbfbf" points="264,-2068.5 366,-2068.5 "/>
<text text-anchor="middle" x="315" y="-2056.5" font-family="Helvetica,sans-Serif" font-size="10.00"> </text>
</g>
<!-- Node9&#45;&gt;Node8 -->
<g id="edge8" class="edge"><title>Node9&#45;&gt;Node8</title>
<path fill="none" stroke="#404040" d="M315,-2049.45C315,-2039.11 315,-2026.94 315,-2013.83"/>
<polygon fill="none" stroke="#404040" points="315,-2013.56 311,-2007.56 315,-2001.56 319,-2007.56 315,-2013.56"/>
<text text-anchor="middle" x="324.5" y="-2023" font-family="Helvetica,sans-Serif" font-size="10.00"> &#45;list</text>
</g>
<!-- Node10&#45;&gt;Node1 -->
<g id="edge9" class="edge"><title>Node10&#45;&gt;Node1</title>
<path fill="none" stroke="#404040" d="M308.999,-1356.25C303.973,-1261.32 296.862,-1120.67 292,-998 283.248,-777.184 285.589,-721.822 277,-501 276.555,-489.563 276.079,-477.858 275.581,-466.037"/>
<polygon fill="none" stroke="#404040" points="275.565,-465.671 271.313,-459.846 275.054,-453.682 279.306,-459.506 275.565,-465.671"/>
<text text-anchor="middle" x="302" y="-856.5" font-family="Helvetica,sans-Serif" font-size="10.00"> &#45;top</text>
</g>
<!-- Node11&#45;&gt;Node1 -->
<g id="edge11" class="edge"><title>Node11&#45;&gt;Node1</title>
<path fill="none" stroke="#404040" d="M365.551,-720.133C350.173,-645.61 330.752,-551.489 313.021,-465.563"/>
<polygon fill="none" stroke="#404040" points="313.012,-465.521 307.882,-460.454 310.587,-453.769 315.717,-458.837 313.012,-465.521"/>
<text text-anchor="middle" x="380.5" y="-599" font-family="Helvetica,sans-Serif" font-size="10.00"> &#45;bottom</text>
</g>
</g>
</svg>
