<?xml version="1.0" encoding="UTF-8" standalone="no"?>
<!DOCTYPE svg PUBLIC "-//W3C//DTD SVG 1.1//EN"
 "http://www.w3.org/Graphics/SVG/1.1/DTD/svg11.dtd">
<!-- Generated by graphviz version 2.38.0 (20140413.2041)
 -->
<!-- Title: TwoTierLadderQueue Pages: 1 -->
<svg width="561pt" height="1992pt"
 viewBox="0.00 0.00 560.50 1992.00" xmlns="http://www.w3.org/2000/svg" xmlns:xlink="http://www.w3.org/1999/xlink">
<g id="graph0" class="graph" transform="scale(1 1) rotate(0) translate(4 1988)">
<title>TwoTierLadderQueue</title>
<polygon fill="white" stroke="none" points="-4,4 -4,-1988 556.5,-1988 556.5,4 -4,4"/>
<!-- Node1 -->
<g id="node1" class="node"><title>Node1</title>
<polygon fill="#bfbfbf" stroke="black" points="232,-0.5 232,-442.5 378,-442.5 378,-0.5 232,-0.5"/>
<text text-anchor="middle" x="305" y="-430.5" font-family="Helvetica,sans-Serif" font-size="10.00">TwoTierLadderQueue</text>
<polyline fill="none" stroke="black" points="232,-423.5 378,-423.5 "/>
<text text-anchor="start" x="240" y="-411.5" font-family="Helvetica,sans-Serif" font-size="10.00">+ MaxRungs</text>
<text text-anchor="start" x="240" y="-400.5" font-family="Helvetica,sans-Serif" font-size="10.00">&#45; nRung</text>
<text text-anchor="start" x="240" y="-389.5" font-family="Helvetica,sans-Serif" font-size="10.00">&#45; ladderEventCount</text>
<polyline fill="none" stroke="black" points="232,-382.5 378,-382.5 "/>
<text text-anchor="start" x="240" y="-370.5" font-family="Helvetica,sans-Serif" font-size="10.00">+ TwoTierLadderQueue()</text>
<text text-anchor="start" x="240" y="-359.5" font-family="Helvetica,sans-Serif" font-size="10.00">+ ~TwoTierLadderQueue()</text>
<text text-anchor="start" x="240" y="-348.5" font-family="Helvetica,sans-Serif" font-size="10.00">+ enqueue()</text>
<text text-anchor="start" x="240" y="-337.5" font-family="Helvetica,sans-Serif" font-size="10.00">+ remove_after()</text>
<text text-anchor="start" x="240" y="-326.5" font-family="Helvetica,sans-Serif" font-size="10.00">+ empty()</text>
<text text-anchor="start" x="240" y="-315.5" font-family="Helvetica,sans-Serif" font-size="10.00">+ addAgent()</text>
<text text-anchor="start" x="240" y="-304.5" font-family="Helvetica,sans-Serif" font-size="10.00">+ removeAgent()</text>
<text text-anchor="start" x="240" y="-293.5" font-family="Helvetica,sans-Serif" font-size="10.00">+ front()</text>
<text text-anchor="start" x="240" y="-282.5" font-family="Helvetica,sans-Serif" font-size="10.00">+ dequeueNextAgentEvents()</text>
<text text-anchor="start" x="240" y="-271.5" font-family="Helvetica,sans-Serif" font-size="10.00">+ enqueue()</text>
<text text-anchor="start" x="240" y="-260.5" font-family="Helvetica,sans-Serif" font-size="10.00">+ enqueue()</text>
<text text-anchor="start" x="240" y="-249.5" font-family="Helvetica,sans-Serif" font-size="10.00">+ eraseAfter()</text>
<text text-anchor="start" x="240" y="-238.5" font-family="Helvetica,sans-Serif" font-size="10.00">+ prettyPrint()</text>
<text text-anchor="start" x="240" y="-227.5" font-family="Helvetica,sans-Serif" font-size="10.00">+ haveBefore()</text>
<text text-anchor="start" x="240" y="-216.5" font-family="Helvetica,sans-Serif" font-size="10.00">+ reportStats()</text>
<text text-anchor="start" x="240" y="-205.5" font-family="Helvetica,sans-Serif" font-size="10.00"># recurseRung()</text>
<text text-anchor="start" x="240" y="-194.5" font-family="Helvetica,sans-Serif" font-size="10.00"># populateBottom()</text>
<text text-anchor="start" x="240" y="-183.5" font-family="Helvetica,sans-Serif" font-size="10.00"># createRungFromBottom()</text>
<text text-anchor="start" x="240" y="-172.5" font-family="Helvetica,sans-Serif" font-size="10.00">&#45; LQ2T_STATS()</text>
<text text-anchor="start" x="240" y="-161.5" font-family="Helvetica,sans-Serif" font-size="10.00">&#45; LQ2T_STATS()</text>
<text text-anchor="start" x="240" y="-150.5" font-family="Helvetica,sans-Serif" font-size="10.00">&#45; LQ2T_STATS()</text>
<text text-anchor="start" x="240" y="-139.5" font-family="Helvetica,sans-Serif" font-size="10.00">&#45; LQ2T_STATS()</text>
<text text-anchor="start" x="240" y="-128.5" font-family="Helvetica,sans-Serif" font-size="10.00">&#45; LQ2T_STATS()</text>
<text text-anchor="start" x="240" y="-117.5" font-family="Helvetica,sans-Serif" font-size="10.00">&#45; LQ2T_STATS()</text>
<text text-anchor="start" x="240" y="-106.5" font-family="Helvetica,sans-Serif" font-size="10.00">&#45; LQ2T_STATS()</text>
<text text-anchor="start" x="240" y="-95.5" font-family="Helvetica,sans-Serif" font-size="10.00">&#45; LQ2T_STATS()</text>
<text text-anchor="start" x="240" y="-84.5" font-family="Helvetica,sans-Serif" font-size="10.00">&#45; LQ2T_STATS()</text>
<text text-anchor="start" x="240" y="-73.5" font-family="Helvetica,sans-Serif" font-size="10.00">&#45; LQ2T_STATS()</text>
<text text-anchor="start" x="240" y="-62.5" font-family="Helvetica,sans-Serif" font-size="10.00">&#45; LQ2T_STATS()</text>
<text text-anchor="start" x="240" y="-51.5" font-family="Helvetica,sans-Serif" font-size="10.00">&#45; LQ2T_STATS()</text>
<text text-anchor="start" x="240" y="-40.5" font-family="Helvetica,sans-Serif" font-size="10.00">&#45; LQ2T_STATS()</text>
<text text-anchor="start" x="240" y="-29.5" font-family="Helvetica,sans-Serif" font-size="10.00">&#45; LQ2T_STATS()</text>
<text text-anchor="start" x="240" y="-18.5" font-family="Helvetica,sans-Serif" font-size="10.00">&#45; LQ2T_STATS()</text>
<text text-anchor="start" x="240" y="-7.5" font-family="Helvetica,sans-Serif" font-size="10.00">&#45; LQ2T_STATS()</text>
</g>
<!-- Node2 -->
<g id="node2" class="node"><title>Node2</title>
<g id="a_node2"><a xlink:href="$classEventQueue.html" xlink:title="Base class for the different queues used by the different Schedulers. ">
<polygon fill="white" stroke="black" points="0,-490.5 0,-690.5 146,-690.5 146,-490.5 0,-490.5"/>
<text text-anchor="middle" x="73" y="-678.5" font-family="Helvetica,sans-Serif" font-size="10.00">EventQueue</text>
<polyline fill="none" stroke="black" points="0,-671.5 146,-671.5 "/>
<text text-anchor="middle" x="73" y="-659.5" font-family="Helvetica,sans-Serif" font-size="10.00"> </text>
<polyline fill="none" stroke="black" points="0,-652.5 146,-652.5 "/>
<text text-anchor="start" x="8" y="-640.5" font-family="Helvetica,sans-Serif" font-size="10.00">+ addAgent()</text>
<text text-anchor="start" x="8" y="-629.5" font-family="Helvetica,sans-Serif" font-size="10.00">+ removeAgent()</text>
<text text-anchor="start" x="8" y="-618.5" font-family="Helvetica,sans-Serif" font-size="10.00">+ empty()</text>
<text text-anchor="start" x="8" y="-607.5" font-family="Helvetica,sans-Serif" font-size="10.00">+ front()</text>
<text text-anchor="start" x="8" y="-596.5" font-family="Helvetica,sans-Serif" font-size="10.00">+ dequeueNextAgentEvents()</text>
<text text-anchor="start" x="8" y="-585.5" font-family="Helvetica,sans-Serif" font-size="10.00">+ enqueue()</text>
<text text-anchor="start" x="8" y="-574.5" font-family="Helvetica,sans-Serif" font-size="10.00">+ enqueue()</text>
<text text-anchor="start" x="8" y="-563.5" font-family="Helvetica,sans-Serif" font-size="10.00">+ eraseAfter()</text>
<text text-anchor="start" x="8" y="-552.5" font-family="Helvetica,sans-Serif" font-size="10.00">+ prettyPrint()</text>
<text text-anchor="start" x="8" y="-541.5" font-family="Helvetica,sans-Serif" font-size="10.00">+ reportStats()</text>
<text text-anchor="start" x="8" y="-530.5" font-family="Helvetica,sans-Serif" font-size="10.00">+ ~EventQueue()</text>
<text text-anchor="start" x="8" y="-519.5" font-family="Helvetica,sans-Serif" font-size="10.00">+ getName()</text>
<text text-anchor="start" x="8" y="-508.5" font-family="Helvetica,sans-Serif" font-size="10.00">+ fixHeap()</text>
<text text-anchor="start" x="8" y="-497.5" font-family="Helvetica,sans-Serif" font-size="10.00"># EventQueue()</text>
</a>
</g>
</g>
<!-- Node2&#45;&gt;Node1 -->
<g id="edge1" class="edge"><title>Node2&#45;&gt;Node1</title>
<path fill="none" stroke="midnightblue" d="M141.232,-481.564C169.731,-436.481 202.891,-384.026 231.889,-338.155"/>
<polygon fill="none" stroke="midnightblue" points="138.168,-479.862 135.783,-490.185 144.084,-483.602 138.168,-479.862"/>
</g>
<!-- Node3 -->
<g id="node3" class="node"><title>Node3</title>
<g id="a_node3"><a xlink:title="STL class. ">
<polygon fill="white" stroke="#bfbfbf" points="43,-881.5 43,-938.5 103,-938.5 103,-881.5 43,-881.5"/>
<text text-anchor="middle" x="73" y="-926.5" font-family="Helvetica,sans-Serif" font-size="10.00">std::string</text>
<polyline fill="none" stroke="#bfbfbf" points="43,-919.5 103,-919.5 "/>
<text text-anchor="middle" x="73" y="-907.5" font-family="Helvetica,sans-Serif" font-size="10.00"> </text>
<polyline fill="none" stroke="#bfbfbf" points="43,-900.5 103,-900.5 "/>
<text text-anchor="middle" x="73" y="-888.5" font-family="Helvetica,sans-Serif" font-size="10.00"> </text>
</a>
</g>
</g>
<!-- Node3&#45;&gt;Node2 -->
<g id="edge2" class="edge"><title>Node3&#45;&gt;Node2</title>
<path fill="none" stroke="#404040" d="M73,-881.379C73,-841.835 73,-766.81 73,-702.994"/>
<polygon fill="none" stroke="#404040" points="73.0001,-702.808 69,-696.808 73,-690.808 77,-696.807 73.0001,-702.808"/>
<text text-anchor="middle" x="88.5" y="-712" font-family="Helvetica,sans-Serif" font-size="10.00"> &#45;name</text>
</g>
<!-- Node4 -->
<g id="node4" class="node"><title>Node4</title>
<g id="a_node4"><a xlink:title="STL class. ">
<polygon fill="white" stroke="#bfbfbf" points="25.5,-1286.5 25.5,-1354.5 120.5,-1354.5 120.5,-1286.5 25.5,-1286.5"/>
<text text-anchor="start" x="33.5" y="-1342.5" font-family="Helvetica,sans-Serif" font-size="10.00">std::basic_string&lt;</text>
<text text-anchor="middle" x="73" y="-1331.5" font-family="Helvetica,sans-Serif" font-size="10.00"> char &gt;</text>
<polyline fill="none" stroke="#bfbfbf" points="25.5,-1324.5 120.5,-1324.5 "/>
<text text-anchor="middle" x="73" y="-1312.5" font-family="Helvetica,sans-Serif" font-size="10.00"> </text>
<polyline fill="none" stroke="#bfbfbf" points="25.5,-1305.5 120.5,-1305.5 "/>
<text text-anchor="middle" x="73" y="-1293.5" font-family="Helvetica,sans-Serif" font-size="10.00"> </text>
</a>
</g>
</g>
<!-- Node4&#45;&gt;Node3 -->
<g id="edge3" class="edge"><title>Node4&#45;&gt;Node3</title>
<path fill="none" stroke="midnightblue" d="M73,-1276.17C73,-1191.96 73,-1008.35 73,-938.617"/>
<polygon fill="none" stroke="midnightblue" points="69.5001,-1276.42 73,-1286.42 76.5001,-1276.42 69.5001,-1276.42"/>
</g>
<!-- Node5 -->
<g id="node5" class="node"><title>Node5</title>
<g id="a_node5"><a xlink:href="$classOneTierBottom.html" xlink:title="The bottom most rung of the TwoTierLadder queue. ">
<polygon fill="white" stroke="black" points="164,-490.5 164,-690.5 310,-690.5 310,-490.5 164,-490.5"/>
<text text-anchor="middle" x="237" y="-678.5" font-family="Helvetica,sans-Serif" font-size="10.00">OneTierBottom</text>
<polyline fill="none" stroke="black" points="164,-671.5 310,-671.5 "/>
<text text-anchor="middle" x="237" y="-659.5" font-family="Helvetica,sans-Serif" font-size="10.00"> </text>
<polyline fill="none" stroke="black" points="164,-652.5 310,-652.5 "/>
<text text-anchor="start" x="172" y="-640.5" font-family="Helvetica,sans-Serif" font-size="10.00">+ OneTierBottom()</text>
<text text-anchor="start" x="172" y="-629.5" font-family="Helvetica,sans-Serif" font-size="10.00">+ enqueue()</text>
<text text-anchor="start" x="172" y="-618.5" font-family="Helvetica,sans-Serif" font-size="10.00">+ enqueue()</text>
<text text-anchor="start" x="172" y="-607.5" font-family="Helvetica,sans-Serif" font-size="10.00">+ remove_after()</text>
<text text-anchor="start" x="172" y="-596.5" font-family="Helvetica,sans-Serif" font-size="10.00">+ remove()</text>
<text text-anchor="start" x="172" y="-585.5" font-family="Helvetica,sans-Serif" font-size="10.00">+ dequeueNextAgentEvents()</text>
<text text-anchor="start" x="172" y="-574.5" font-family="Helvetica,sans-Serif" font-size="10.00">+ maxTime()</text>
<text text-anchor="start" x="172" y="-563.5" font-family="Helvetica,sans-Serif" font-size="10.00">+ findMinTime()</text>
<text text-anchor="start" x="172" y="-552.5" font-family="Helvetica,sans-Serif" font-size="10.00">+ getTimeRange()</text>
<text text-anchor="start" x="172" y="-541.5" font-family="Helvetica,sans-Serif" font-size="10.00">+ getBucketWidth()</text>
<text text-anchor="start" x="172" y="-530.5" font-family="Helvetica,sans-Serif" font-size="10.00">+ validate()</text>
<text text-anchor="start" x="172" y="-519.5" font-family="Helvetica,sans-Serif" font-size="10.00">+ haveBefore()</text>
<text text-anchor="start" x="172" y="-508.5" font-family="Helvetica,sans-Serif" font-size="10.00">+ first_event()</text>
<text text-anchor="start" x="172" y="-497.5" font-family="Helvetica,sans-Serif" font-size="10.00">+ compare()</text>
</a>
</g>
</g>
<!-- Node5&#45;&gt;Node1 -->
<g id="edge4" class="edge"><title>Node5&#45;&gt;Node1</title>
<path fill="none" stroke="#404040" d="M255.402,-490.185C257.518,-478.763 259.737,-466.785 262.014,-454.495"/>
<polygon fill="none" stroke="#404040" points="262.028,-454.423 259.188,-447.795 264.214,-442.624 267.054,-449.253 262.028,-454.423"/>
<text text-anchor="middle" x="277.5" y="-464" font-family="Helvetica,sans-Serif" font-size="10.00"> &#45;bottom</text>
</g>
<!-- Node6 -->
<g id="node6" class="node"><title>Node6</title>
<polygon fill="white" stroke="#bfbfbf" points="200.5,-881.5 200.5,-938.5 273.5,-938.5 273.5,-881.5 200.5,-881.5"/>
<text text-anchor="middle" x="237" y="-926.5" font-family="Helvetica,sans-Serif" font-size="10.00">BktEventList</text>
<polyline fill="none" stroke="#bfbfbf" points="200.5,-919.5 273.5,-919.5 "/>
<text text-anchor="start" x="208.5" y="-907.5" font-family="Helvetica,sans-Serif" font-size="10.00">+ elements</text>
<polyline fill="none" stroke="#bfbfbf" points="200.5,-900.5 273.5,-900.5 "/>
<text text-anchor="middle" x="237" y="-888.5" font-family="Helvetica,sans-Serif" font-size="10.00"> </text>
</g>
<!-- Node6&#45;&gt;Node5 -->
<g id="edge5" class="edge"><title>Node6&#45;&gt;Node5</title>
<path fill="none" stroke="midnightblue" d="M237,-871.366C237,-827.16 237,-752.079 237,-690.808"/>
<polygon fill="none" stroke="midnightblue" points="233.5,-871.379 237,-881.379 240.5,-871.379 233.5,-871.379"/>
</g>
<!-- Node7 -->
<g id="node7" class="node"><title>Node7</title>
<polygon fill="white" stroke="#bfbfbf" points="328,-562 328,-619 468,-619 468,-562 328,-562"/>
<text text-anchor="middle" x="398" y="-607" font-family="Helvetica,sans-Serif" font-size="10.00">std::vector&lt; TwoTierRung &gt;</text>
<polyline fill="none" stroke="#bfbfbf" points="328,-600 468,-600 "/>
<text text-anchor="middle" x="398" y="-588" font-family="Helvetica,sans-Serif" font-size="10.00"> </text>
<polyline fill="none" stroke="#bfbfbf" points="328,-581 468,-581 "/>
<text text-anchor="middle" x="398" y="-569" font-family="Helvetica,sans-Serif" font-size="10.00"> </text>
</g>
<!-- Node7&#45;&gt;Node1 -->
<g id="edge6" class="edge"><title>Node7&#45;&gt;Node1</title>
<path fill="none" stroke="#404040" d="M391.01,-561.915C384.689,-536.972 374.717,-497.62 363.768,-454.41"/>
<polygon fill="none" stroke="#404040" points="363.758,-454.374 358.407,-449.541 360.811,-442.742 366.162,-447.575 363.758,-454.374"/>
<text text-anchor="middle" x="384.5" y="-464" font-family="Helvetica,sans-Serif" font-size="10.00"> &#45;ladder</text>
</g>
<!-- Node8 -->
<g id="node8" class="node"><title>Node8</title>
<g id="a_node8"><a xlink:href="$classTwoTierRung.html" xlink:title="Class that represents one rung in the 2&#45;tier ladder queue. ">
<polygon fill="white" stroke="black" points="334,-738.5 334,-1081.5 456,-1081.5 456,-738.5 334,-738.5"/>
<text text-anchor="middle" x="395" y="-1069.5" font-family="Helvetica,sans-Serif" font-size="10.00">TwoTierRung</text>
<polyline fill="none" stroke="black" points="334,-1062.5 456,-1062.5 "/>
<text text-anchor="start" x="342" y="-1050.5" font-family="Helvetica,sans-Serif" font-size="10.00">&#45; rStartTS</text>
<text text-anchor="start" x="342" y="-1039.5" font-family="Helvetica,sans-Serif" font-size="10.00">&#45; rCurrTS</text>
<text text-anchor="start" x="342" y="-1028.5" font-family="Helvetica,sans-Serif" font-size="10.00">&#45; bucketWidth</text>
<text text-anchor="start" x="342" y="-1017.5" font-family="Helvetica,sans-Serif" font-size="10.00">&#45; currBucket</text>
<text text-anchor="start" x="342" y="-1006.5" font-family="Helvetica,sans-Serif" font-size="10.00">&#45; rungEventCount</text>
<polyline fill="none" stroke="black" points="334,-999.5 456,-999.5 "/>
<text text-anchor="start" x="342" y="-987.5" font-family="Helvetica,sans-Serif" font-size="10.00">+ TwoTierRung()</text>
<text text-anchor="start" x="342" y="-976.5" font-family="Helvetica,sans-Serif" font-size="10.00">+ TwoTierRung()</text>
<text text-anchor="start" x="342" y="-965.5" font-family="Helvetica,sans-Serif" font-size="10.00">+ TwoTierRung()</text>
<text text-anchor="start" x="342" y="-954.5" font-family="Helvetica,sans-Serif" font-size="10.00">+ TwoTierRung()</text>
<text text-anchor="start" x="342" y="-943.5" font-family="Helvetica,sans-Serif" font-size="10.00">+ move()</text>
<text text-anchor="start" x="342" y="-932.5" font-family="Helvetica,sans-Serif" font-size="10.00">+ TwoTierRung()</text>
<text text-anchor="start" x="342" y="-921.5" font-family="Helvetica,sans-Serif" font-size="10.00">+ move()</text>
<text text-anchor="start" x="342" y="-910.5" font-family="Helvetica,sans-Serif" font-size="10.00">+ removeNextBucket()</text>
<text text-anchor="start" x="342" y="-899.5" font-family="Helvetica,sans-Serif" font-size="10.00">+ empty()</text>
<text text-anchor="start" x="342" y="-888.5" font-family="Helvetica,sans-Serif" font-size="10.00">+ enqueue()</text>
<text text-anchor="start" x="342" y="-877.5" font-family="Helvetica,sans-Serif" font-size="10.00">+ getStartTime()</text>
<text text-anchor="start" x="342" y="-866.5" font-family="Helvetica,sans-Serif" font-size="10.00">+ getBucketWidth()</text>
<text text-anchor="start" x="342" y="-855.5" font-family="Helvetica,sans-Serif" font-size="10.00">+ getCurrTime()</text>
<text text-anchor="start" x="342" y="-844.5" font-family="Helvetica,sans-Serif" font-size="10.00">+ getMaxRungTime()</text>
<text text-anchor="start" x="342" y="-833.5" font-family="Helvetica,sans-Serif" font-size="10.00">+ canContain()</text>
<text text-anchor="start" x="342" y="-822.5" font-family="Helvetica,sans-Serif" font-size="10.00">+ remove_after()</text>
<text text-anchor="start" x="342" y="-811.5" font-family="Helvetica,sans-Serif" font-size="10.00">+ remove()</text>
<text text-anchor="start" x="342" y="-800.5" font-family="Helvetica,sans-Serif" font-size="10.00">+ validateEventCounts()</text>
<text text-anchor="start" x="342" y="-789.5" font-family="Helvetica,sans-Serif" font-size="10.00">+ prettyPrint()</text>
<text text-anchor="start" x="342" y="-778.5" font-family="Helvetica,sans-Serif" font-size="10.00">+ updateStats()</text>
<text text-anchor="start" x="342" y="-767.5" font-family="Helvetica,sans-Serif" font-size="10.00">+ isCurrBucketEmpty()</text>
<text text-anchor="start" x="342" y="-756.5" font-family="Helvetica,sans-Serif" font-size="10.00">+ haveBefore()</text>
<text text-anchor="start" x="342" y="-745.5" font-family="Helvetica,sans-Serif" font-size="10.00">&#45; LQ2T_STATS()</text>
</a>
</g>
</g>
<!-- Node8&#45;&gt;Node7 -->
<g id="edge7" class="edge"><title>Node8&#45;&gt;Node7</title>
<path fill="none" stroke="#404040" d="M396.614,-738.168C396.992,-698.128 397.361,-659.118 397.623,-631.408"/>
<polygon fill="none" stroke="#404040" points="397.625,-631.133 393.682,-625.095 397.739,-619.134 401.682,-625.171 397.625,-631.133"/>
<text text-anchor="middle" x="421.5" y="-712" font-family="Helvetica,sans-Serif" font-size="10.00"> +elements</text>
</g>
<!-- Node9 -->
<g id="node9" class="node"><title>Node9</title>
<polygon fill="white" stroke="#bfbfbf" points="323.5,-1292 323.5,-1349 470.5,-1349 470.5,-1292 323.5,-1292"/>
<text text-anchor="middle" x="397" y="-1337" font-family="Helvetica,sans-Serif" font-size="10.00">std::vector&lt; TwoTierBucket &gt;</text>
<polyline fill="none" stroke="#bfbfbf" points="323.5,-1330 470.5,-1330 "/>
<text text-anchor="middle" x="397" y="-1318" font-family="Helvetica,sans-Serif" font-size="10.00"> </text>
<polyline fill="none" stroke="#bfbfbf" points="323.5,-1311 470.5,-1311 "/>
<text text-anchor="middle" x="397" y="-1299" font-family="Helvetica,sans-Serif" font-size="10.00"> </text>
</g>
<!-- Node9&#45;&gt;Node8 -->
<g id="edge8" class="edge"><title>Node9&#45;&gt;Node8</title>
<path fill="none" stroke="#404040" d="M392.532,-1291.77C391.486,-1284.09 390.524,-1275.74 390,-1268 386.18,-1211.54 385.721,-1149.94 386.711,-1094.05"/>
<polygon fill="none" stroke="#404040" points="386.715,-1093.84 382.834,-1087.77 386.952,-1081.85 390.833,-1087.92 386.715,-1093.84"/>
<text text-anchor="middle" x="416" y="-1181.5" font-family="Helvetica,sans-Serif" font-size="10.00"> &#45;bucketList</text>
</g>
<!-- Node10 -->
<g id="node10" class="node"><title>Node10</title>
<g id="a_node10"><a xlink:href="$classTwoTierBucket.html" xlink:title="A generic two tier bucket that is used for both Top and Rungs of the 2&#45;tier ladderQ. ">
<polygon fill="white" stroke="black" points="421,-1402.5 421,-1668.5 525,-1668.5 525,-1402.5 421,-1402.5"/>
<text text-anchor="middle" x="473" y="-1656.5" font-family="Helvetica,sans-Serif" font-size="10.00">TwoTierBucket</text>
<polyline fill="none" stroke="black" points="421,-1649.5 525,-1649.5 "/>
<text text-anchor="start" x="429" y="-1637.5" font-family="Helvetica,sans-Serif" font-size="10.00">+ t2k</text>
<text text-anchor="start" x="429" y="-1626.5" font-family="Helvetica,sans-Serif" font-size="10.00">&#45; count</text>
<polyline fill="none" stroke="black" points="421,-1619.5 525,-1619.5 "/>
<text text-anchor="start" x="429" y="-1607.5" font-family="Helvetica,sans-Serif" font-size="10.00">+ TwoTierBucket()</text>
<text text-anchor="start" x="429" y="-1596.5" font-family="Helvetica,sans-Serif" font-size="10.00">+ TwoTierBucket()</text>
<text text-anchor="start" x="429" y="-1585.5" font-family="Helvetica,sans-Serif" font-size="10.00">+ ~TwoTierBucket()</text>
<text text-anchor="start" x="429" y="-1574.5" font-family="Helvetica,sans-Serif" font-size="10.00">+ hash()</text>
<text text-anchor="start" x="429" y="-1563.5" font-family="Helvetica,sans-Serif" font-size="10.00">+ push_back()</text>
<text text-anchor="start" x="429" y="-1552.5" font-family="Helvetica,sans-Serif" font-size="10.00">+ push_back()</text>
<text text-anchor="start" x="429" y="-1541.5" font-family="Helvetica,sans-Serif" font-size="10.00">+ push_back()</text>
<text text-anchor="start" x="429" y="-1530.5" font-family="Helvetica,sans-Serif" font-size="10.00">+ size()</text>
<text text-anchor="start" x="429" y="-1519.5" font-family="Helvetica,sans-Serif" font-size="10.00">+ empty()</text>
<text text-anchor="start" x="429" y="-1508.5" font-family="Helvetica,sans-Serif" font-size="10.00">+ remove_after()</text>
<text text-anchor="start" x="429" y="-1497.5" font-family="Helvetica,sans-Serif" font-size="10.00">+ remove()</text>
<text text-anchor="start" x="429" y="-1486.5" font-family="Helvetica,sans-Serif" font-size="10.00">+ haveBefore()</text>
<text text-anchor="start" x="429" y="-1475.5" font-family="Helvetica,sans-Serif" font-size="10.00">+ getSubBuckets()</text>
<text text-anchor="start" x="429" y="-1464.5" font-family="Helvetica,sans-Serif" font-size="10.00">+ resetCount()</text>
<text text-anchor="start" x="429" y="-1453.5" font-family="Helvetica,sans-Serif" font-size="10.00">+ push_back()</text>
<text text-anchor="start" x="429" y="-1442.5" font-family="Helvetica,sans-Serif" font-size="10.00">+ remove_after()</text>
<text text-anchor="start" x="429" y="-1431.5" font-family="Helvetica,sans-Serif" font-size="10.00">+ remove()</text>
<text text-anchor="start" x="429" y="-1420.5" font-family="Helvetica,sans-Serif" font-size="10.00"># getEventCount()</text>
<text text-anchor="start" x="429" y="-1409.5" font-family="Helvetica,sans-Serif" font-size="10.00"># clear()</text>
</a>
</g>
</g>
<!-- Node10&#45;&gt;Node9 -->
<g id="edge9" class="edge"><title>Node10&#45;&gt;Node9</title>
<path fill="none" stroke="#404040" d="M425.841,-1402.33C420.482,-1387.31 415.381,-1373.02 411.001,-1360.74"/>
<polygon fill="none" stroke="#404040" points="410.911,-1360.49 405.127,-1356.18 406.878,-1349.18 412.662,-1353.49 410.911,-1360.49"/>
<text text-anchor="middle" x="442.5" y="-1376" font-family="Helvetica,sans-Serif" font-size="10.00"> +elements</text>
</g>
<!-- Node14 -->
<g id="node14" class="node"><title>Node14</title>
<g id="a_node14"><a xlink:href="$classTwoTierTop.html" xlink:title="The class that forms the Top rung of a 2&#45;tier ladder queue. ">
<polygon fill="white" stroke="black" points="451.5,-1100.5 451.5,-1267.5 552.5,-1267.5 552.5,-1100.5 451.5,-1100.5"/>
<text text-anchor="middle" x="502" y="-1255.5" font-family="Helvetica,sans-Serif" font-size="10.00">TwoTierTop</text>
<polyline fill="none" stroke="black" points="451.5,-1248.5 552.5,-1248.5 "/>
<text text-anchor="start" x="459.5" y="-1236.5" font-family="Helvetica,sans-Serif" font-size="10.00">&#45; minTS</text>
<text text-anchor="start" x="459.5" y="-1225.5" font-family="Helvetica,sans-Serif" font-size="10.00">&#45; maxTS</text>
<text text-anchor="start" x="459.5" y="-1214.5" font-family="Helvetica,sans-Serif" font-size="10.00">&#45; topStart</text>
<polyline fill="none" stroke="black" points="451.5,-1207.5 552.5,-1207.5 "/>
<text text-anchor="start" x="459.5" y="-1195.5" font-family="Helvetica,sans-Serif" font-size="10.00">+ TwoTierTop()</text>
<text text-anchor="start" x="459.5" y="-1184.5" font-family="Helvetica,sans-Serif" font-size="10.00">+ ~TwoTierTop()</text>
<text text-anchor="start" x="459.5" y="-1173.5" font-family="Helvetica,sans-Serif" font-size="10.00">+ add()</text>
<text text-anchor="start" x="459.5" y="-1162.5" font-family="Helvetica,sans-Serif" font-size="10.00">+ getStartTime()</text>
<text text-anchor="start" x="459.5" y="-1151.5" font-family="Helvetica,sans-Serif" font-size="10.00">+ getMinTime()</text>
<text text-anchor="start" x="459.5" y="-1140.5" font-family="Helvetica,sans-Serif" font-size="10.00">+ getMaxTime()</text>
<text text-anchor="start" x="459.5" y="-1129.5" font-family="Helvetica,sans-Serif" font-size="10.00">+ contains()</text>
<text text-anchor="start" x="459.5" y="-1118.5" font-family="Helvetica,sans-Serif" font-size="10.00">+ getBucketWidth()</text>
<text text-anchor="start" x="459.5" y="-1107.5" font-family="Helvetica,sans-Serif" font-size="10.00"># reset()</text>
</a>
</g>
</g>
<!-- Node10&#45;&gt;Node14 -->
<g id="edge14" class="edge"><title>Node10&#45;&gt;Node14</title>
<path fill="none" stroke="midnightblue" d="M484.804,-1392.24C488.32,-1349.87 492.054,-1304.86 495.142,-1267.65"/>
<polygon fill="none" stroke="midnightblue" points="481.303,-1392.11 483.964,-1402.37 488.279,-1392.69 481.303,-1392.11"/>
</g>
<!-- Node11 -->
<g id="node11" class="node"><title>Node11</title>
<polygon fill="white" stroke="#bfbfbf" points="404.5,-1716.5 404.5,-1773.5 541.5,-1773.5 541.5,-1716.5 404.5,-1716.5"/>
<text text-anchor="middle" x="473" y="-1761.5" font-family="Helvetica,sans-Serif" font-size="10.00">std::vector&lt; BktEventList &gt;</text>
<polyline fill="none" stroke="#bfbfbf" points="404.5,-1754.5 541.5,-1754.5 "/>
<text text-anchor="middle" x="473" y="-1742.5" font-family="Helvetica,sans-Serif" font-size="10.00"> </text>
<polyline fill="none" stroke="#bfbfbf" points="404.5,-1735.5 541.5,-1735.5 "/>
<text text-anchor="middle" x="473" y="-1723.5" font-family="Helvetica,sans-Serif" font-size="10.00"> </text>
</g>
<!-- Node11&#45;&gt;Node10 -->
<g id="edge10" class="edge"><title>Node11&#45;&gt;Node10</title>
<path fill="none" stroke="#404040" d="M473,-1716.45C473,-1706.4 473,-1694.23 473,-1681.02"/>
<polygon fill="none" stroke="#404040" points="473,-1680.61 469,-1674.61 473,-1668.61 477,-1674.61 473,-1680.61"/>
<text text-anchor="middle" x="502" y="-1690" font-family="Helvetica,sans-Serif" font-size="10.00"> &#45;subBuckets</text>
</g>
<!-- Node12 -->
<g id="node12" class="node"><title>Node12</title>
<g id="a_node12"><a xlink:title="STL class. ">
<polygon fill="white" stroke="#bfbfbf" points="429.5,-1821.5 429.5,-1878.5 516.5,-1878.5 516.5,-1821.5 429.5,-1821.5"/>
<text text-anchor="middle" x="473" y="-1866.5" font-family="Helvetica,sans-Serif" font-size="10.00">std::vector&lt; T &gt;</text>
<polyline fill="none" stroke="#bfbfbf" points="429.5,-1859.5 516.5,-1859.5 "/>
<text text-anchor="middle" x="473" y="-1847.5" font-family="Helvetica,sans-Serif" font-size="10.00"> </text>
<polyline fill="none" stroke="#bfbfbf" points="429.5,-1840.5 516.5,-1840.5 "/>
<text text-anchor="middle" x="473" y="-1828.5" font-family="Helvetica,sans-Serif" font-size="10.00"> </text>
</a>
</g>
</g>
<!-- Node12&#45;&gt;Node11 -->
<g id="edge11" class="edge"><title>Node12&#45;&gt;Node11</title>
<path fill="none" stroke="#404040" d="M473,-1821.4C473,-1810.55 473,-1797.87 473,-1786.05"/>
<polygon fill="none" stroke="#404040" points="473,-1785.68 469,-1779.68 473,-1773.68 477,-1779.68 473,-1785.68"/>
<text text-anchor="middle" x="497.5" y="-1795" font-family="Helvetica,sans-Serif" font-size="10.00"> +elements</text>
</g>
<!-- Node13 -->
<g id="node13" class="node"><title>Node13</title>
<polygon fill="white" stroke="#bfbfbf" points="458.5,-1926.5 458.5,-1983.5 487.5,-1983.5 487.5,-1926.5 458.5,-1926.5"/>
<text text-anchor="middle" x="473" y="-1971.5" font-family="Helvetica,sans-Serif" font-size="10.00">T</text>
<polyline fill="none" stroke="#bfbfbf" points="458.5,-1964.5 487.5,-1964.5 "/>
<text text-anchor="middle" x="473" y="-1952.5" font-family="Helvetica,sans-Serif" font-size="10.00"> </text>
<polyline fill="none" stroke="#bfbfbf" points="458.5,-1945.5 487.5,-1945.5 "/>
<text text-anchor="middle" x="473" y="-1933.5" font-family="Helvetica,sans-Serif" font-size="10.00"> </text>
</g>
<!-- Node13&#45;&gt;Node12 -->
<g id="edge12" class="edge"><title>Node13&#45;&gt;Node12</title>
<path fill="none" stroke="#404040" d="M473,-1926.4C473,-1915.55 473,-1902.87 473,-1891.05"/>
<polygon fill="none" stroke="#404040" points="473,-1890.68 469,-1884.68 473,-1878.68 477,-1884.68 473,-1890.68"/>
<text text-anchor="middle" x="497.5" y="-1900" font-family="Helvetica,sans-Serif" font-size="10.00"> +elements</text>
</g>
<!-- Node14&#45;&gt;Node1 -->
<g id="edge13" class="edge"><title>Node14&#45;&gt;Node1</title>
<path fill="none" stroke="#404040" d="M512.815,-1100.35C527.118,-967.988 543.391,-701.809 477,-490 457.727,-428.511 420.278,-367.49 385.232,-319.29"/>
<polygon fill="none" stroke="#404040" points="385.147,-319.175 378.368,-316.717 378.029,-309.514 384.809,-311.972 385.147,-319.175"/>
<text text-anchor="middle" x="529" y="-712" font-family="Helvetica,sans-Serif" font-size="10.00"> &#45;top</text>
</g>
</g>
</svg>
