<?xml version="1.0" encoding="UTF-8" standalone="no"?>
<!DOCTYPE svg PUBLIC "-//W3C//DTD SVG 1.1//EN"
 "http://www.w3.org/Graphics/SVG/1.1/DTD/svg11.dtd">
<!-- Generated by graphviz version 2.38.0 (20140413.2041)
 -->
<!-- Title: HeapEventQueue Pages: 1 -->
<svg width="300pt" height="1047pt"
 viewBox="0.00 0.00 300.00 1047.00" xmlns="http://www.w3.org/2000/svg" xmlns:xlink="http://www.w3.org/1999/xlink">
<g id="graph0" class="graph" transform="scale(1 1) rotate(0) translate(4 1043)">
<title>HeapEventQueue</title>
<polygon fill="white" stroke="none" points="-4,4 -4,-1043 296,-1043 296,4 -4,4"/>
<!-- Node1 -->
<g id="node1" class="node"><title>Node1</title>
<polygon fill="#bfbfbf" stroke="black" points="88,-0.5 88,-200.5 234,-200.5 234,-0.5 88,-0.5"/>
<text text-anchor="middle" x="161" y="-188.5" font-family="Helvetica,sans-Serif" font-size="10.00">HeapEventQueue</text>
<polyline fill="none" stroke="black" points="88,-181.5 234,-181.5 "/>
<text text-anchor="start" x="96" y="-169.5" font-family="Helvetica,sans-Serif" font-size="10.00">&#45; maxQsize</text>
<polyline fill="none" stroke="black" points="88,-162.5 234,-162.5 "/>
<text text-anchor="start" x="96" y="-150.5" font-family="Helvetica,sans-Serif" font-size="10.00">+ HeapEventQueue()</text>
<text text-anchor="start" x="96" y="-139.5" font-family="Helvetica,sans-Serif" font-size="10.00">+ ~HeapEventQueue()</text>
<text text-anchor="start" x="96" y="-128.5" font-family="Helvetica,sans-Serif" font-size="10.00">+ addAgent()</text>
<text text-anchor="start" x="96" y="-117.5" font-family="Helvetica,sans-Serif" font-size="10.00">+ removeAgent()</text>
<text text-anchor="start" x="96" y="-106.5" font-family="Helvetica,sans-Serif" font-size="10.00">+ empty()</text>
<text text-anchor="start" x="96" y="-95.5" font-family="Helvetica,sans-Serif" font-size="10.00">+ front()</text>
<text text-anchor="start" x="96" y="-84.5" font-family="Helvetica,sans-Serif" font-size="10.00">+ dequeueNextAgentEvents()</text>
<text text-anchor="start" x="96" y="-73.5" font-family="Helvetica,sans-Serif" font-size="10.00">+ enqueue()</text>
<text text-anchor="start" x="96" y="-62.5" font-family="Helvetica,sans-Serif" font-size="10.00">+ enqueue()</text>
<text text-anchor="start" x="96" y="-51.5" font-family="Helvetica,sans-Serif" font-size="10.00">+ eraseAfter()</text>
<text text-anchor="start" x="96" y="-40.5" font-family="Helvetica,sans-Serif" font-size="10.00">+ prettyPrint()</text>
<text text-anchor="start" x="96" y="-29.5" font-family="Helvetica,sans-Serif" font-size="10.00">+ reportStats()</text>
<text text-anchor="start" x="96" y="-18.5" font-family="Helvetica,sans-Serif" font-size="10.00"># pop_front()</text>
<text text-anchor="start" x="96" y="-7.5" font-family="Helvetica,sans-Serif" font-size="10.00"># compare()</text>
</g>
<!-- Node2 -->
<g id="node2" class="node"><title>Node2</title>
<g id="a_node2"><a xlink:href="$classEventQueue.html" xlink:title="Base class for the different queues used by the different Schedulers. ">
<polygon fill="white" stroke="black" points="0,-248.5 0,-448.5 146,-448.5 146,-248.5 0,-248.5"/>
<text text-anchor="middle" x="73" y="-436.5" font-family="Helvetica,sans-Serif" font-size="10.00">EventQueue</text>
<polyline fill="none" stroke="black" points="0,-429.5 146,-429.5 "/>
<text text-anchor="middle" x="73" y="-417.5" font-family="Helvetica,sans-Serif" font-size="10.00"> </text>
<polyline fill="none" stroke="black" points="0,-410.5 146,-410.5 "/>
<text text-anchor="start" x="8" y="-398.5" font-family="Helvetica,sans-Serif" font-size="10.00">+ addAgent()</text>
<text text-anchor="start" x="8" y="-387.5" font-family="Helvetica,sans-Serif" font-size="10.00">+ removeAgent()</text>
<text text-anchor="start" x="8" y="-376.5" font-family="Helvetica,sans-Serif" font-size="10.00">+ empty()</text>
<text text-anchor="start" x="8" y="-365.5" font-family="Helvetica,sans-Serif" font-size="10.00">+ front()</text>
<text text-anchor="start" x="8" y="-354.5" font-family="Helvetica,sans-Serif" font-size="10.00">+ dequeueNextAgentEvents()</text>
<text text-anchor="start" x="8" y="-343.5" font-family="Helvetica,sans-Serif" font-size="10.00">+ enqueue()</text>
<text text-anchor="start" x="8" y="-332.5" font-family="Helvetica,sans-Serif" font-size="10.00">+ enqueue()</text>
<text text-anchor="start" x="8" y="-321.5" font-family="Helvetica,sans-Serif" font-size="10.00">+ eraseAfter()</text>
<text text-anchor="start" x="8" y="-310.5" font-family="Helvetica,sans-Serif" font-size="10.00">+ prettyPrint()</text>
<text text-anchor="start" x="8" y="-299.5" font-family="Helvetica,sans-Serif" font-size="10.00">+ reportStats()</text>
<text text-anchor="start" x="8" y="-288.5" font-family="Helvetica,sans-Serif" font-size="10.00">+ ~EventQueue()</text>
<text text-anchor="start" x="8" y="-277.5" font-family="Helvetica,sans-Serif" font-size="10.00">+ getName()</text>
<text text-anchor="start" x="8" y="-266.5" font-family="Helvetica,sans-Serif" font-size="10.00">+ fixHeap()</text>
<text text-anchor="start" x="8" y="-255.5" font-family="Helvetica,sans-Serif" font-size="10.00"># EventQueue()</text>
</a>
</g>
</g>
<!-- Node2&#45;&gt;Node1 -->
<g id="edge1" class="edge"><title>Node2&#45;&gt;Node1</title>
<path fill="none" stroke="midnightblue" d="M111.96,-238.588C116.457,-226.019 121.024,-213.252 125.471,-200.819"/>
<polygon fill="none" stroke="midnightblue" points="108.612,-237.557 108.539,-248.151 115.203,-239.915 108.612,-237.557"/>
</g>
<!-- Node3 -->
<g id="node3" class="node"><title>Node3</title>
<g id="a_node3"><a xlink:title="STL class. ">
<polygon fill="white" stroke="#bfbfbf" points="43,-628.5 43,-685.5 103,-685.5 103,-628.5 43,-628.5"/>
<text text-anchor="middle" x="73" y="-673.5" font-family="Helvetica,sans-Serif" font-size="10.00">std::string</text>
<polyline fill="none" stroke="#bfbfbf" points="43,-666.5 103,-666.5 "/>
<text text-anchor="middle" x="73" y="-654.5" font-family="Helvetica,sans-Serif" font-size="10.00"> </text>
<polyline fill="none" stroke="#bfbfbf" points="43,-647.5 103,-647.5 "/>
<text text-anchor="middle" x="73" y="-635.5" font-family="Helvetica,sans-Serif" font-size="10.00"> </text>
</a>
</g>
</g>
<!-- Node3&#45;&gt;Node2 -->
<g id="edge2" class="edge"><title>Node3&#45;&gt;Node2</title>
<path fill="none" stroke="#404040" d="M73,-628.26C73,-590.623 73,-521.17 73,-461.008"/>
<polygon fill="none" stroke="#404040" points="73.0001,-460.719 69,-454.719 73,-448.719 77,-454.719 73.0001,-460.719"/>
<text text-anchor="middle" x="88.5" y="-470" font-family="Helvetica,sans-Serif" font-size="10.00"> &#45;name</text>
</g>
<!-- Node4 -->
<g id="node4" class="node"><title>Node4</title>
<g id="a_node4"><a xlink:title="STL class. ">
<polygon fill="white" stroke="#bfbfbf" points="25.5,-865.5 25.5,-933.5 120.5,-933.5 120.5,-865.5 25.5,-865.5"/>
<text text-anchor="start" x="33.5" y="-921.5" font-family="Helvetica,sans-Serif" font-size="10.00">std::basic_string&lt;</text>
<text text-anchor="middle" x="73" y="-910.5" font-family="Helvetica,sans-Serif" font-size="10.00"> char &gt;</text>
<polyline fill="none" stroke="#bfbfbf" points="25.5,-903.5 120.5,-903.5 "/>
<text text-anchor="middle" x="73" y="-891.5" font-family="Helvetica,sans-Serif" font-size="10.00"> </text>
<polyline fill="none" stroke="#bfbfbf" points="25.5,-884.5 120.5,-884.5 "/>
<text text-anchor="middle" x="73" y="-872.5" font-family="Helvetica,sans-Serif" font-size="10.00"> </text>
</a>
</g>
</g>
<!-- Node4&#45;&gt;Node3 -->
<g id="edge3" class="edge"><title>Node4&#45;&gt;Node3</title>
<path fill="none" stroke="midnightblue" d="M73,-855.289C73,-806.09 73,-727.175 73,-685.631"/>
<polygon fill="none" stroke="midnightblue" points="69.5001,-855.312 73,-865.312 76.5001,-855.312 69.5001,-855.312"/>
</g>
<!-- Node5 -->
<g id="node5" class="node"><title>Node5</title>
<polygon fill="white" stroke="#bfbfbf" points="164.5,-320 164.5,-377 277.5,-377 277.5,-320 164.5,-320"/>
<text text-anchor="middle" x="221" y="-365" font-family="Helvetica,sans-Serif" font-size="10.00">std::vector&lt; Event * &gt;</text>
<polyline fill="none" stroke="#bfbfbf" points="164.5,-358 277.5,-358 "/>
<text text-anchor="middle" x="221" y="-346" font-family="Helvetica,sans-Serif" font-size="10.00"> </text>
<polyline fill="none" stroke="#bfbfbf" points="164.5,-339 277.5,-339 "/>
<text text-anchor="middle" x="221" y="-327" font-family="Helvetica,sans-Serif" font-size="10.00"> </text>
</g>
<!-- Node5&#45;&gt;Node1 -->
<g id="edge4" class="edge"><title>Node5&#45;&gt;Node1</title>
<path fill="none" stroke="#404040" d="M214.234,-319.759C207.804,-293.398 197.706,-251.995 188.025,-212.303"/>
<polygon fill="none" stroke="#404040" points="188.018,-212.274 182.71,-207.392 185.174,-200.615 190.482,-205.497 188.018,-212.274"/>
<text text-anchor="middle" x="214" y="-222" font-family="Helvetica,sans-Serif" font-size="10.00"> &#45;eventList</text>
</g>
<!-- Node6 -->
<g id="node6" class="node"><title>Node6</title>
<g id="a_node6"><a xlink:href="$classEvent.html" xlink:title="The base class for all events in a simulation. ">
<polygon fill="white" stroke="black" points="157.5,-496.5 157.5,-817.5 284.5,-817.5 284.5,-496.5 157.5,-496.5"/>
<text text-anchor="middle" x="221" y="-805.5" font-family="Helvetica,sans-Serif" font-size="10.00">Event</text>
<polyline fill="none" stroke="black" points="157.5,-798.5 284.5,-798.5 "/>
<text text-anchor="start" x="165.5" y="-786.5" font-family="Helvetica,sans-Serif" font-size="10.00"># senderAgentID</text>
<text text-anchor="start" x="165.5" y="-775.5" font-family="Helvetica,sans-Serif" font-size="10.00"># receiverAgentID</text>
<text text-anchor="start" x="165.5" y="-764.5" font-family="Helvetica,sans-Serif" font-size="10.00"># sentTime</text>
<text text-anchor="start" x="165.5" y="-753.5" font-family="Helvetica,sans-Serif" font-size="10.00"># receiveTime</text>
<text text-anchor="start" x="165.5" y="-742.5" font-family="Helvetica,sans-Serif" font-size="10.00"># antiMessage</text>
<text text-anchor="start" x="165.5" y="-731.5" font-family="Helvetica,sans-Serif" font-size="10.00"># referenceCount</text>
<text text-anchor="start" x="165.5" y="-720.5" font-family="Helvetica,sans-Serif" font-size="10.00"># color</text>
<polyline fill="none" stroke="black" points="157.5,-713.5 284.5,-713.5 "/>
<text text-anchor="start" x="165.5" y="-701.5" font-family="Helvetica,sans-Serif" font-size="10.00">+ CREATE()</text>
<text text-anchor="start" x="165.5" y="-690.5" font-family="Helvetica,sans-Serif" font-size="10.00">+ getSenderAgentID()</text>
<text text-anchor="start" x="165.5" y="-679.5" font-family="Helvetica,sans-Serif" font-size="10.00">+ getReceiverAgentID()</text>
<text text-anchor="start" x="165.5" y="-668.5" font-family="Helvetica,sans-Serif" font-size="10.00">+ getSentTime()</text>
<text text-anchor="start" x="165.5" y="-657.5" font-family="Helvetica,sans-Serif" font-size="10.00">+ getReceiveTime()</text>
<text text-anchor="start" x="165.5" y="-646.5" font-family="Helvetica,sans-Serif" font-size="10.00">+ getReferenceCount()</text>
<text text-anchor="start" x="165.5" y="-635.5" font-family="Helvetica,sans-Serif" font-size="10.00">+ isAntiMessage()</text>
<text text-anchor="start" x="165.5" y="-624.5" font-family="Helvetica,sans-Serif" font-size="10.00">+ allocate()</text>
<text text-anchor="start" x="165.5" y="-613.5" font-family="Helvetica,sans-Serif" font-size="10.00">+ deallocate()</text>
<text text-anchor="start" x="165.5" y="-602.5" font-family="Helvetica,sans-Serif" font-size="10.00"># Event()</text>
<text text-anchor="start" x="165.5" y="-591.5" font-family="Helvetica,sans-Serif" font-size="10.00"># getColor()</text>
<text text-anchor="start" x="165.5" y="-580.5" font-family="Helvetica,sans-Serif" font-size="10.00"># setColor()</text>
<text text-anchor="start" x="165.5" y="-569.5" font-family="Helvetica,sans-Serif" font-size="10.00"># getEventSize()</text>
<text text-anchor="start" x="165.5" y="-558.5" font-family="Helvetica,sans-Serif" font-size="10.00"># decreaseReference()</text>
<text text-anchor="start" x="165.5" y="-547.5" font-family="Helvetica,sans-Serif" font-size="10.00"># increaseReference()</text>
<text text-anchor="start" x="165.5" y="-536.5" font-family="Helvetica,sans-Serif" font-size="10.00"># makeAntiMessage()</text>
<text text-anchor="start" x="165.5" y="-525.5" font-family="Helvetica,sans-Serif" font-size="10.00"># setReferenceCount()</text>
<text text-anchor="start" x="165.5" y="-514.5" font-family="Helvetica,sans-Serif" font-size="10.00"># ~Event()</text>
<text text-anchor="start" x="165.5" y="-503.5" font-family="Helvetica,sans-Serif" font-size="10.00">&#45; deleteRecycledEvents()</text>
</a>
</g>
</g>
<!-- Node6&#45;&gt;Node5 -->
<g id="edge5" class="edge"><title>Node6&#45;&gt;Node5</title>
<path fill="none" stroke="#404040" d="M221,-496.466C221,-456.66 221,-417.421 221,-389.514"/>
<polygon fill="none" stroke="#404040" points="221,-389.15 217,-383.15 221,-377.15 225,-383.15 221,-389.15"/>
<text text-anchor="middle" x="245.5" y="-470" font-family="Helvetica,sans-Serif" font-size="10.00"> +elements</text>
</g>
<!-- Node7 -->
<g id="node7" class="node"><title>Node7</title>
<polygon fill="white" stroke="#bfbfbf" points="152,-865.5 152,-933.5 290,-933.5 290,-865.5 152,-865.5"/>
<text text-anchor="start" x="160" y="-921.5" font-family="Helvetica,sans-Serif" font-size="10.00">std::unordered_map</text>
<text text-anchor="middle" x="221" y="-910.5" font-family="Helvetica,sans-Serif" font-size="10.00">&lt; int, std::stack&lt; char * &gt; &gt;</text>
<polyline fill="none" stroke="#bfbfbf" points="152,-903.5 290,-903.5 "/>
<text text-anchor="start" x="160" y="-891.5" font-family="Helvetica,sans-Serif" font-size="10.00">+ keys</text>
<polyline fill="none" stroke="#bfbfbf" points="152,-884.5 290,-884.5 "/>
<text text-anchor="middle" x="221" y="-872.5" font-family="Helvetica,sans-Serif" font-size="10.00"> </text>
</g>
<!-- Node7&#45;&gt;Node6 -->
<g id="edge6" class="edge"><title>Node7&#45;&gt;Node6</title>
<path fill="none" stroke="#404040" d="M221,-865.312C221,-855.052 221,-842.969 221,-829.878"/>
<polygon fill="none" stroke="#404040" points="221,-829.596 217,-823.596 221,-817.596 225,-823.596 221,-829.596"/>
<text text-anchor="middle" x="256.5" y="-839" font-family="Helvetica,sans-Serif" font-size="10.00"> &#45;EventRecycler</text>
</g>
<!-- Node8 -->
<g id="node8" class="node"><title>Node8</title>
<polygon fill="white" stroke="#bfbfbf" points="169,-981.5 169,-1038.5 273,-1038.5 273,-981.5 169,-981.5"/>
<text text-anchor="middle" x="221" y="-1026.5" font-family="Helvetica,sans-Serif" font-size="10.00">std::stack&lt; char * &gt;</text>
<polyline fill="none" stroke="#bfbfbf" points="169,-1019.5 273,-1019.5 "/>
<text text-anchor="start" x="177" y="-1007.5" font-family="Helvetica,sans-Serif" font-size="10.00">+ elements</text>
<polyline fill="none" stroke="#bfbfbf" points="169,-1000.5 273,-1000.5 "/>
<text text-anchor="middle" x="221" y="-988.5" font-family="Helvetica,sans-Serif" font-size="10.00"> </text>
</g>
<!-- Node8&#45;&gt;Node7 -->
<g id="edge7" class="edge"><title>Node8&#45;&gt;Node7</title>
<path fill="none" stroke="#404040" d="M221,-981.34C221,-970.529 221,-957.847 221,-945.775"/>
<polygon fill="none" stroke="#404040" points="221,-945.519 217,-939.519 221,-933.519 225,-939.519 221,-945.519"/>
<text text-anchor="middle" x="245.5" y="-955" font-family="Helvetica,sans-Serif" font-size="10.00"> +elements</text>
</g>
</g>
</svg>
