<?xml version="1.0" encoding="UTF-8" standalone="no"?>
<!DOCTYPE svg PUBLIC "-//W3C//DTD SVG 1.1//EN"
 "http://www.w3.org/Graphics/SVG/1.1/DTD/svg11.dtd">
<!-- Generated by graphviz version 2.38.0 (20140413.2041)
 -->
<!-- Title: ThreeTierHeapEventQueue Pages: 1 -->
<svg width="544pt" height="909pt"
 viewBox="0.00 0.00 543.50 909.00" xmlns="http://www.w3.org/2000/svg" xmlns:xlink="http://www.w3.org/1999/xlink">
<g id="graph0" class="graph" transform="scale(1 1) rotate(0) translate(4 905)">
<title>ThreeTierHeapEventQueue</title>
<polygon fill="white" stroke="none" points="-4,4 -4,-905 539.5,-905 539.5,4 -4,4"/>
<!-- Node1 -->
<g id="node1" class="node"><title>Node1</title>
<polygon fill="#bfbfbf" stroke="black" points="266,-0.5 266,-321.5 422,-321.5 422,-0.5 266,-0.5"/>
<text text-anchor="middle" x="344" y="-309.5" font-family="Helvetica,sans-Serif" font-size="10.00">ThreeTierHeapEventQueue</text>
<polyline fill="none" stroke="black" points="266,-302.5 422,-302.5 "/>
<text text-anchor="middle" x="344" y="-290.5" font-family="Helvetica,sans-Serif" font-size="10.00"> </text>
<polyline fill="none" stroke="black" points="266,-283.5 422,-283.5 "/>
<text text-anchor="start" x="274" y="-271.5" font-family="Helvetica,sans-Serif" font-size="10.00">+ ThreeTierHeapEventQueue()</text>
<text text-anchor="start" x="274" y="-260.5" font-family="Helvetica,sans-Serif" font-size="10.00">+ ~ThreeTierHeapEventQueue()</text>
<text text-anchor="start" x="274" y="-249.5" font-family="Helvetica,sans-Serif" font-size="10.00">+ addAgent()</text>
<text text-anchor="start" x="274" y="-238.5" font-family="Helvetica,sans-Serif" font-size="10.00">+ removeAgent()</text>
<text text-anchor="start" x="274" y="-227.5" font-family="Helvetica,sans-Serif" font-size="10.00">+ empty()</text>
<text text-anchor="start" x="274" y="-216.5" font-family="Helvetica,sans-Serif" font-size="10.00">+ front()</text>
<text text-anchor="start" x="274" y="-205.5" font-family="Helvetica,sans-Serif" font-size="10.00">+ dequeueNextAgentEvents()</text>
<text text-anchor="start" x="274" y="-194.5" font-family="Helvetica,sans-Serif" font-size="10.00">+ enqueue()</text>
<text text-anchor="start" x="274" y="-183.5" font-family="Helvetica,sans-Serif" font-size="10.00">+ enqueue()</text>
<text text-anchor="start" x="274" y="-172.5" font-family="Helvetica,sans-Serif" font-size="10.00">+ eraseAfter()</text>
<text text-anchor="start" x="274" y="-161.5" font-family="Helvetica,sans-Serif" font-size="10.00">+ prettyPrint()</text>
<text text-anchor="start" x="274" y="-150.5" font-family="Helvetica,sans-Serif" font-size="10.00">+ reportStats()</text>
<text text-anchor="start" x="274" y="-139.5" font-family="Helvetica,sans-Serif" font-size="10.00"># enqueueEvent()</text>
<text text-anchor="start" x="274" y="-128.5" font-family="Helvetica,sans-Serif" font-size="10.00"># pop_front()</text>
<text text-anchor="start" x="274" y="-117.5" font-family="Helvetica,sans-Serif" font-size="10.00"># top()</text>
<text text-anchor="start" x="274" y="-106.5" font-family="Helvetica,sans-Serif" font-size="10.00"># getTopTime()</text>
<text text-anchor="start" x="274" y="-95.5" font-family="Helvetica,sans-Serif" font-size="10.00"># compare()</text>
<text text-anchor="start" x="274" y="-84.5" font-family="Helvetica,sans-Serif" font-size="10.00"># getNextEvents()</text>
<text text-anchor="start" x="274" y="-73.5" font-family="Helvetica,sans-Serif" font-size="10.00"># getIndex()</text>
<text text-anchor="start" x="274" y="-62.5" font-family="Helvetica,sans-Serif" font-size="10.00"># updateHeap()</text>
<text text-anchor="start" x="274" y="-51.5" font-family="Helvetica,sans-Serif" font-size="10.00"># fixHeap()</text>
<text text-anchor="start" x="274" y="-40.5" font-family="Helvetica,sans-Serif" font-size="10.00"># isFutureEvent()</text>
<text text-anchor="start" x="274" y="-29.5" font-family="Helvetica,sans-Serif" font-size="10.00"># makeTier2Entry()</text>
<text text-anchor="start" x="274" y="-18.5" font-family="Helvetica,sans-Serif" font-size="10.00"># lessThan()</text>
<text text-anchor="start" x="274" y="-7.5" font-family="Helvetica,sans-Serif" font-size="10.00"># lessThanPtr()</text>
</g>
<!-- Node2 -->
<g id="node2" class="node"><title>Node2</title>
<g id="a_node2"><a xlink:href="$classEventQueue.html" xlink:title="Base class for the different queues used by the different Schedulers. ">
<polygon fill="white" stroke="black" points="0,-391.5 0,-591.5 146,-591.5 146,-391.5 0,-391.5"/>
<text text-anchor="middle" x="73" y="-579.5" font-family="Helvetica,sans-Serif" font-size="10.00">EventQueue</text>
<polyline fill="none" stroke="black" points="0,-572.5 146,-572.5 "/>
<text text-anchor="middle" x="73" y="-560.5" font-family="Helvetica,sans-Serif" font-size="10.00"> </text>
<polyline fill="none" stroke="black" points="0,-553.5 146,-553.5 "/>
<text text-anchor="start" x="8" y="-541.5" font-family="Helvetica,sans-Serif" font-size="10.00">+ addAgent()</text>
<text text-anchor="start" x="8" y="-530.5" font-family="Helvetica,sans-Serif" font-size="10.00">+ removeAgent()</text>
<text text-anchor="start" x="8" y="-519.5" font-family="Helvetica,sans-Serif" font-size="10.00">+ empty()</text>
<text text-anchor="start" x="8" y="-508.5" font-family="Helvetica,sans-Serif" font-size="10.00">+ front()</text>
<text text-anchor="start" x="8" y="-497.5" font-family="Helvetica,sans-Serif" font-size="10.00">+ dequeueNextAgentEvents()</text>
<text text-anchor="start" x="8" y="-486.5" font-family="Helvetica,sans-Serif" font-size="10.00">+ enqueue()</text>
<text text-anchor="start" x="8" y="-475.5" font-family="Helvetica,sans-Serif" font-size="10.00">+ enqueue()</text>
<text text-anchor="start" x="8" y="-464.5" font-family="Helvetica,sans-Serif" font-size="10.00">+ eraseAfter()</text>
<text text-anchor="start" x="8" y="-453.5" font-family="Helvetica,sans-Serif" font-size="10.00">+ prettyPrint()</text>
<text text-anchor="start" x="8" y="-442.5" font-family="Helvetica,sans-Serif" font-size="10.00">+ reportStats()</text>
<text text-anchor="start" x="8" y="-431.5" font-family="Helvetica,sans-Serif" font-size="10.00">+ ~EventQueue()</text>
<text text-anchor="start" x="8" y="-420.5" font-family="Helvetica,sans-Serif" font-size="10.00">+ getName()</text>
<text text-anchor="start" x="8" y="-409.5" font-family="Helvetica,sans-Serif" font-size="10.00">+ fixHeap()</text>
<text text-anchor="start" x="8" y="-398.5" font-family="Helvetica,sans-Serif" font-size="10.00"># EventQueue()</text>
</a>
</g>
</g>
<!-- Node2&#45;&gt;Node1 -->
<g id="edge1" class="edge"><title>Node2&#45;&gt;Node1</title>
<path fill="none" stroke="midnightblue" d="M152.523,-394.003C153.353,-392.997 154.179,-391.996 155,-391 191.406,-346.857 231.774,-297.941 265.823,-256.691"/>
<polygon fill="none" stroke="midnightblue" points="149.756,-391.858 146.094,-401.8 155.157,-396.311 149.756,-391.858"/>
</g>
<!-- Node3 -->
<g id="node3" class="node"><title>Node3</title>
<g id="a_node3"><a xlink:title="STL class. ">
<polygon fill="white" stroke="#bfbfbf" points="43,-683.5 43,-740.5 103,-740.5 103,-683.5 43,-683.5"/>
<text text-anchor="middle" x="73" y="-728.5" font-family="Helvetica,sans-Serif" font-size="10.00">std::string</text>
<polyline fill="none" stroke="#bfbfbf" points="43,-721.5 103,-721.5 "/>
<text text-anchor="middle" x="73" y="-709.5" font-family="Helvetica,sans-Serif" font-size="10.00"> </text>
<polyline fill="none" stroke="#bfbfbf" points="43,-702.5 103,-702.5 "/>
<text text-anchor="middle" x="73" y="-690.5" font-family="Helvetica,sans-Serif" font-size="10.00"> </text>
</a>
</g>
</g>
<!-- Node3&#45;&gt;Node2 -->
<g id="edge2" class="edge"><title>Node3&#45;&gt;Node2</title>
<path fill="none" stroke="#404040" d="M73,-683.327C73,-662.838 73,-633.456 73,-603.867"/>
<polygon fill="none" stroke="#404040" points="73.0001,-603.648 69,-597.648 73,-591.648 77,-597.648 73.0001,-603.648"/>
<text text-anchor="middle" x="88.5" y="-613" font-family="Helvetica,sans-Serif" font-size="10.00"> &#45;name</text>
</g>
<!-- Node4 -->
<g id="node4" class="node"><title>Node4</title>
<g id="a_node4"><a xlink:title="STL class. ">
<polygon fill="white" stroke="#bfbfbf" points="25.5,-832.5 25.5,-900.5 120.5,-900.5 120.5,-832.5 25.5,-832.5"/>
<text text-anchor="start" x="33.5" y="-888.5" font-family="Helvetica,sans-Serif" font-size="10.00">std::basic_string&lt;</text>
<text text-anchor="middle" x="73" y="-877.5" font-family="Helvetica,sans-Serif" font-size="10.00"> char &gt;</text>
<polyline fill="none" stroke="#bfbfbf" points="25.5,-870.5 120.5,-870.5 "/>
<text text-anchor="middle" x="73" y="-858.5" font-family="Helvetica,sans-Serif" font-size="10.00"> </text>
<polyline fill="none" stroke="#bfbfbf" points="25.5,-851.5 120.5,-851.5 "/>
<text text-anchor="middle" x="73" y="-839.5" font-family="Helvetica,sans-Serif" font-size="10.00"> </text>
</a>
</g>
</g>
<!-- Node4&#45;&gt;Node3 -->
<g id="edge3" class="edge"><title>Node4&#45;&gt;Node3</title>
<path fill="none" stroke="midnightblue" d="M73,-822.385C73,-796.26 73,-763.692 73,-740.915"/>
<polygon fill="none" stroke="midnightblue" points="69.5001,-822.41 73,-832.41 76.5001,-822.41 69.5001,-822.41"/>
</g>
<!-- Node5 -->
<g id="node5" class="node"><title>Node5</title>
<polygon fill="white" stroke="#bfbfbf" points="164,-463 164,-520 318,-520 318,-463 164,-463"/>
<text text-anchor="middle" x="241" y="-508" font-family="Helvetica,sans-Serif" font-size="10.00">std::deque&lt; HOETier2Entry * &gt;</text>
<polyline fill="none" stroke="#bfbfbf" points="164,-501 318,-501 "/>
<text text-anchor="middle" x="241" y="-489" font-family="Helvetica,sans-Serif" font-size="10.00"> </text>
<polyline fill="none" stroke="#bfbfbf" points="164,-482 318,-482 "/>
<text text-anchor="middle" x="241" y="-470" font-family="Helvetica,sans-Serif" font-size="10.00"> </text>
</g>
<!-- Node5&#45;&gt;Node1 -->
<g id="edge4" class="edge"><title>Node5&#45;&gt;Node1</title>
<path fill="none" stroke="#404040" d="M249.693,-462.775C258.962,-433.214 274.451,-383.814 290.225,-333.505"/>
<polygon fill="none" stroke="#404040" points="290.323,-333.191 288.302,-326.27 293.914,-321.741 295.935,-328.663 290.323,-333.191"/>
<text text-anchor="middle" x="318" y="-359.5" font-family="Helvetica,sans-Serif" font-size="10.00"> &#45;EmptyT2List</text>
<text text-anchor="middle" x="318" y="-348.5" font-family="Helvetica,sans-Serif" font-size="10.00">&#45;tier2Recycler</text>
</g>
<!-- Node6 -->
<g id="node6" class="node"><title>Node6</title>
<g id="a_node6"><a xlink:href="$classHOETier2Entry.html" xlink:title="Class to encapsulate information for Tier2 entries/buckets. ">
<polygon fill="white" stroke="black" points="189.5,-639.5 189.5,-784.5 292.5,-784.5 292.5,-639.5 189.5,-639.5"/>
<text text-anchor="middle" x="241" y="-772.5" font-family="Helvetica,sans-Serif" font-size="10.00">HOETier2Entry</text>
<polyline fill="none" stroke="black" points="189.5,-765.5 292.5,-765.5 "/>
<text text-anchor="start" x="197.5" y="-753.5" font-family="Helvetica,sans-Serif" font-size="10.00">&#45; recvTime</text>
<polyline fill="none" stroke="black" points="189.5,-746.5 292.5,-746.5 "/>
<text text-anchor="start" x="197.5" y="-734.5" font-family="Helvetica,sans-Serif" font-size="10.00">+ HOETier2Entry()</text>
<text text-anchor="start" x="197.5" y="-723.5" font-family="Helvetica,sans-Serif" font-size="10.00">+ reset()</text>
<text text-anchor="start" x="197.5" y="-712.5" font-family="Helvetica,sans-Serif" font-size="10.00">+ updateContainer()</text>
<text text-anchor="start" x="197.5" y="-701.5" font-family="Helvetica,sans-Serif" font-size="10.00">+ getEvent()</text>
<text text-anchor="start" x="197.5" y="-690.5" font-family="Helvetica,sans-Serif" font-size="10.00">+ operator==()</text>
<text text-anchor="start" x="197.5" y="-679.5" font-family="Helvetica,sans-Serif" font-size="10.00">+ operator&lt;()</text>
<text text-anchor="start" x="197.5" y="-668.5" font-family="Helvetica,sans-Serif" font-size="10.00">+ getReceiveTime()</text>
<text text-anchor="start" x="197.5" y="-657.5" font-family="Helvetica,sans-Serif" font-size="10.00">+ getEventList()</text>
<text text-anchor="start" x="197.5" y="-646.5" font-family="Helvetica,sans-Serif" font-size="10.00">+ getEventList()</text>
</a>
</g>
</g>
<!-- Node6&#45;&gt;Node5 -->
<g id="edge5" class="edge"><title>Node6&#45;&gt;Node5</title>
<path fill="none" stroke="#404040" d="M241,-639.455C241,-603.844 241,-562.14 241,-532.275"/>
<polygon fill="none" stroke="#404040" points="241,-532.253 237,-526.253 241,-520.253 245,-526.253 241,-532.253"/>
<text text-anchor="middle" x="265.5" y="-613" font-family="Helvetica,sans-Serif" font-size="10.00"> +elements</text>
</g>
<!-- Node7 -->
<g id="node7" class="node"><title>Node7</title>
<polygon fill="white" stroke="#bfbfbf" points="190,-832.5 190,-900.5 292,-900.5 292,-832.5 190,-832.5"/>
<text text-anchor="start" x="198" y="-888.5" font-family="Helvetica,sans-Serif" font-size="10.00">std::vector&lt; muse::</text>
<text text-anchor="middle" x="241" y="-877.5" font-family="Helvetica,sans-Serif" font-size="10.00">Event * &gt;</text>
<polyline fill="none" stroke="#bfbfbf" points="190,-870.5 292,-870.5 "/>
<text text-anchor="start" x="198" y="-858.5" font-family="Helvetica,sans-Serif" font-size="10.00">+ elements</text>
<polyline fill="none" stroke="#bfbfbf" points="190,-851.5 292,-851.5 "/>
<text text-anchor="middle" x="241" y="-839.5" font-family="Helvetica,sans-Serif" font-size="10.00"> </text>
</g>
<!-- Node7&#45;&gt;Node6 -->
<g id="edge6" class="edge"><title>Node7&#45;&gt;Node6</title>
<path fill="none" stroke="#404040" d="M241,-832.41C241,-821.722 241,-809.347 241,-796.696"/>
<polygon fill="none" stroke="#404040" points="241,-796.528 237,-790.528 241,-784.528 245,-790.528 241,-796.528"/>
<text text-anchor="middle" x="264" y="-806" font-family="Helvetica,sans-Serif" font-size="10.00"> &#45;eventList</text>
</g>
<!-- Node8 -->
<g id="node8" class="node"><title>Node8</title>
<polygon fill="white" stroke="#bfbfbf" points="336,-457.5 336,-525.5 438,-525.5 438,-457.5 336,-457.5"/>
<text text-anchor="start" x="344" y="-513.5" font-family="Helvetica,sans-Serif" font-size="10.00">std::vector&lt; muse::</text>
<text text-anchor="middle" x="387" y="-502.5" font-family="Helvetica,sans-Serif" font-size="10.00">Agent * &gt;</text>
<polyline fill="none" stroke="#bfbfbf" points="336,-495.5 438,-495.5 "/>
<text text-anchor="start" x="344" y="-483.5" font-family="Helvetica,sans-Serif" font-size="10.00">+ elements</text>
<polyline fill="none" stroke="#bfbfbf" points="336,-476.5 438,-476.5 "/>
<text text-anchor="middle" x="387" y="-464.5" font-family="Helvetica,sans-Serif" font-size="10.00"> </text>
</g>
<!-- Node8&#45;&gt;Node1 -->
<g id="edge7" class="edge"><title>Node8&#45;&gt;Node1</title>
<path fill="none" stroke="#404040" d="M382.68,-457.498C378.763,-427.575 372.669,-381.021 366.468,-333.645"/>
<polygon fill="none" stroke="#404040" points="366.448,-333.491 361.703,-328.061 364.89,-321.592 369.635,-327.022 366.448,-333.491"/>
<text text-anchor="middle" x="394" y="-354" font-family="Helvetica,sans-Serif" font-size="10.00"> &#45;agentList</text>
</g>
<!-- Node9 -->
<g id="node9" class="node"><title>Node9</title>
<g id="a_node9"><a xlink:href="$classAvg.html" xlink:title="Helper class to streamline the process of tracking average statistics. ">
<polygon fill="white" stroke="black" points="456.5,-413.5 456.5,-569.5 535.5,-569.5 535.5,-413.5 456.5,-413.5"/>
<text text-anchor="middle" x="496" y="-557.5" font-family="Helvetica,sans-Serif" font-size="10.00">Avg</text>
<polyline fill="none" stroke="black" points="456.5,-550.5 535.5,-550.5 "/>
<text text-anchor="start" x="464.5" y="-538.5" font-family="Helvetica,sans-Serif" font-size="10.00">&#45; mean</text>
<text text-anchor="start" x="464.5" y="-527.5" font-family="Helvetica,sans-Serif" font-size="10.00">&#45; sum</text>
<text text-anchor="start" x="464.5" y="-516.5" font-family="Helvetica,sans-Serif" font-size="10.00">&#45; samples</text>
<polyline fill="none" stroke="black" points="456.5,-509.5 535.5,-509.5 "/>
<text text-anchor="start" x="464.5" y="-497.5" font-family="Helvetica,sans-Serif" font-size="10.00">+ Avg()</text>
<text text-anchor="start" x="464.5" y="-486.5" font-family="Helvetica,sans-Serif" font-size="10.00">+ ~Avg()</text>
<text text-anchor="start" x="464.5" y="-475.5" font-family="Helvetica,sans-Serif" font-size="10.00">+ add()</text>
<text text-anchor="start" x="464.5" y="-464.5" font-family="Helvetica,sans-Serif" font-size="10.00">+ operator++()</text>
<text text-anchor="start" x="464.5" y="-453.5" font-family="Helvetica,sans-Serif" font-size="10.00">+ operator+=()</text>
<text text-anchor="start" x="464.5" y="-442.5" font-family="Helvetica,sans-Serif" font-size="10.00">+ getMean()</text>
<text text-anchor="start" x="464.5" y="-431.5" font-family="Helvetica,sans-Serif" font-size="10.00">+ getSum()</text>
<text text-anchor="start" x="464.5" y="-420.5" font-family="Helvetica,sans-Serif" font-size="10.00">+ getCount()</text>
</a>
</g>
</g>
<!-- Node9&#45;&gt;Node1 -->
<g id="edge8" class="edge"><title>Node9&#45;&gt;Node1</title>
<path fill="none" stroke="#404040" d="M460.363,-413.481C449.092,-389.122 436.152,-361.158 423.091,-332.929"/>
<polygon fill="none" stroke="#404040" points="422.926,-332.573 416.776,-328.807 417.886,-321.682 424.036,-325.448 422.926,-332.573"/>
<text text-anchor="middle" x="484.5" y="-365" font-family="Helvetica,sans-Serif" font-size="10.00"> &#45;fixHeapSwapCount</text>
<text text-anchor="middle" x="484.5" y="-354" font-family="Helvetica,sans-Serif" font-size="10.00">&#45;avgSchedBktSize</text>
<text text-anchor="middle" x="484.5" y="-343" font-family="Helvetica,sans-Serif" font-size="10.00">&#45;agentBktCount</text>
</g>
</g>
</svg>
