<?xml version="1.0" encoding="UTF-8" standalone="no"?>
<!DOCTYPE svg PUBLIC "-//W3C//DTD SVG 1.1//EN"
 "http://www.w3.org/Graphics/SVG/1.1/DTD/svg11.dtd">
<!-- Generated by graphviz version 2.38.0 (20140413.2041)
 -->
<!-- Title: TwoTierHeapEventQueue Pages: 1 -->
<svg width="418pt" height="1207pt"
 viewBox="0.00 0.00 418.00 1207.00" xmlns="http://www.w3.org/2000/svg" xmlns:xlink="http://www.w3.org/1999/xlink">
<g id="graph0" class="graph" transform="scale(1 1) rotate(0) translate(4 1203)">
<title>TwoTierHeapEventQueue</title>
<polygon fill="white" stroke="none" points="-4,4 -4,-1203 414,-1203 414,4 -4,4"/>
<!-- Node1 -->
<g id="node1" class="node"><title>Node1</title>
<polygon fill="#bfbfbf" stroke="black" points="152,-0.5 152,-255.5 302,-255.5 302,-0.5 152,-0.5"/>
<text text-anchor="middle" x="227" y="-243.5" font-family="Helvetica,sans-Serif" font-size="10.00">TwoTierHeapEventQueue</text>
<polyline fill="none" stroke="black" points="152,-236.5 302,-236.5 "/>
<text text-anchor="middle" x="227" y="-224.5" font-family="Helvetica,sans-Serif" font-size="10.00"> </text>
<polyline fill="none" stroke="black" points="152,-217.5 302,-217.5 "/>
<text text-anchor="start" x="160" y="-205.5" font-family="Helvetica,sans-Serif" font-size="10.00">+ TwoTierHeapEventQueue()</text>
<text text-anchor="start" x="160" y="-194.5" font-family="Helvetica,sans-Serif" font-size="10.00">+ ~TwoTierHeapEventQueue()</text>
<text text-anchor="start" x="160" y="-183.5" font-family="Helvetica,sans-Serif" font-size="10.00">+ addAgent()</text>
<text text-anchor="start" x="160" y="-172.5" font-family="Helvetica,sans-Serif" font-size="10.00">+ removeAgent()</text>
<text text-anchor="start" x="160" y="-161.5" font-family="Helvetica,sans-Serif" font-size="10.00">+ empty()</text>
<text text-anchor="start" x="160" y="-150.5" font-family="Helvetica,sans-Serif" font-size="10.00">+ front()</text>
<text text-anchor="start" x="160" y="-139.5" font-family="Helvetica,sans-Serif" font-size="10.00">+ dequeueNextAgentEvents()</text>
<text text-anchor="start" x="160" y="-128.5" font-family="Helvetica,sans-Serif" font-size="10.00">+ enqueue()</text>
<text text-anchor="start" x="160" y="-117.5" font-family="Helvetica,sans-Serif" font-size="10.00">+ enqueue()</text>
<text text-anchor="start" x="160" y="-106.5" font-family="Helvetica,sans-Serif" font-size="10.00">+ eraseAfter()</text>
<text text-anchor="start" x="160" y="-95.5" font-family="Helvetica,sans-Serif" font-size="10.00">+ prettyPrint()</text>
<text text-anchor="start" x="160" y="-84.5" font-family="Helvetica,sans-Serif" font-size="10.00">+ reportStats()</text>
<text text-anchor="start" x="160" y="-73.5" font-family="Helvetica,sans-Serif" font-size="10.00"># getTopTime()</text>
<text text-anchor="start" x="160" y="-62.5" font-family="Helvetica,sans-Serif" font-size="10.00"># compare()</text>
<text text-anchor="start" x="160" y="-51.5" font-family="Helvetica,sans-Serif" font-size="10.00"># top()</text>
<text text-anchor="start" x="160" y="-40.5" font-family="Helvetica,sans-Serif" font-size="10.00"># getIndex()</text>
<text text-anchor="start" x="160" y="-29.5" font-family="Helvetica,sans-Serif" font-size="10.00"># updateHeap()</text>
<text text-anchor="start" x="160" y="-18.5" font-family="Helvetica,sans-Serif" font-size="10.00"># fixHeap()</text>
<text text-anchor="start" x="160" y="-7.5" font-family="Helvetica,sans-Serif" font-size="10.00"># getNextEvents()</text>
</g>
<!-- Node2 -->
<g id="node2" class="node"><title>Node2</title>
<g id="a_node2"><a xlink:href="$classEventQueue.html" xlink:title="Base class for the different queues used by the different Schedulers. ">
<polygon fill="white" stroke="black" points="0,-303.5 0,-503.5 146,-503.5 146,-303.5 0,-303.5"/>
<text text-anchor="middle" x="73" y="-491.5" font-family="Helvetica,sans-Serif" font-size="10.00">EventQueue</text>
<polyline fill="none" stroke="black" points="0,-484.5 146,-484.5 "/>
<text text-anchor="middle" x="73" y="-472.5" font-family="Helvetica,sans-Serif" font-size="10.00"> </text>
<polyline fill="none" stroke="black" points="0,-465.5 146,-465.5 "/>
<text text-anchor="start" x="8" y="-453.5" font-family="Helvetica,sans-Serif" font-size="10.00">+ addAgent()</text>
<text text-anchor="start" x="8" y="-442.5" font-family="Helvetica,sans-Serif" font-size="10.00">+ removeAgent()</text>
<text text-anchor="start" x="8" y="-431.5" font-family="Helvetica,sans-Serif" font-size="10.00">+ empty()</text>
<text text-anchor="start" x="8" y="-420.5" font-family="Helvetica,sans-Serif" font-size="10.00">+ front()</text>
<text text-anchor="start" x="8" y="-409.5" font-family="Helvetica,sans-Serif" font-size="10.00">+ dequeueNextAgentEvents()</text>
<text text-anchor="start" x="8" y="-398.5" font-family="Helvetica,sans-Serif" font-size="10.00">+ enqueue()</text>
<text text-anchor="start" x="8" y="-387.5" font-family="Helvetica,sans-Serif" font-size="10.00">+ enqueue()</text>
<text text-anchor="start" x="8" y="-376.5" font-family="Helvetica,sans-Serif" font-size="10.00">+ eraseAfter()</text>
<text text-anchor="start" x="8" y="-365.5" font-family="Helvetica,sans-Serif" font-size="10.00">+ prettyPrint()</text>
<text text-anchor="start" x="8" y="-354.5" font-family="Helvetica,sans-Serif" font-size="10.00">+ reportStats()</text>
<text text-anchor="start" x="8" y="-343.5" font-family="Helvetica,sans-Serif" font-size="10.00">+ ~EventQueue()</text>
<text text-anchor="start" x="8" y="-332.5" font-family="Helvetica,sans-Serif" font-size="10.00">+ getName()</text>
<text text-anchor="start" x="8" y="-321.5" font-family="Helvetica,sans-Serif" font-size="10.00">+ fixHeap()</text>
<text text-anchor="start" x="8" y="-310.5" font-family="Helvetica,sans-Serif" font-size="10.00"># EventQueue()</text>
</a>
</g>
</g>
<!-- Node2&#45;&gt;Node1 -->
<g id="edge1" class="edge"><title>Node2&#45;&gt;Node1</title>
<path fill="none" stroke="midnightblue" d="M133.744,-294.621C140.912,-281.889 148.278,-268.808 155.577,-255.846"/>
<polygon fill="none" stroke="midnightblue" points="130.672,-292.943 128.815,-303.374 136.771,-296.377 130.672,-292.943"/>
</g>
<!-- Node3 -->
<g id="node3" class="node"><title>Node3</title>
<g id="a_node3"><a xlink:title="STL class. ">
<polygon fill="white" stroke="#bfbfbf" points="43,-551.5 43,-608.5 103,-608.5 103,-551.5 43,-551.5"/>
<text text-anchor="middle" x="73" y="-596.5" font-family="Helvetica,sans-Serif" font-size="10.00">std::string</text>
<polyline fill="none" stroke="#bfbfbf" points="43,-589.5 103,-589.5 "/>
<text text-anchor="middle" x="73" y="-577.5" font-family="Helvetica,sans-Serif" font-size="10.00"> </text>
<polyline fill="none" stroke="#bfbfbf" points="43,-570.5 103,-570.5 "/>
<text text-anchor="middle" x="73" y="-558.5" font-family="Helvetica,sans-Serif" font-size="10.00"> </text>
</a>
</g>
</g>
<!-- Node3&#45;&gt;Node2 -->
<g id="edge2" class="edge"><title>Node3&#45;&gt;Node2</title>
<path fill="none" stroke="#404040" d="M73,-551.35C73,-541.196 73,-528.98 73,-515.984"/>
<polygon fill="none" stroke="#404040" points="73.0001,-515.867 69,-509.867 73,-503.867 77,-509.867 73.0001,-515.867"/>
<text text-anchor="middle" x="88.5" y="-525" font-family="Helvetica,sans-Serif" font-size="10.00"> &#45;name</text>
</g>
<!-- Node4 -->
<g id="node4" class="node"><title>Node4</title>
<g id="a_node4"><a xlink:title="STL class. ">
<polygon fill="white" stroke="#bfbfbf" points="25.5,-783 25.5,-851 120.5,-851 120.5,-783 25.5,-783"/>
<text text-anchor="start" x="33.5" y="-839" font-family="Helvetica,sans-Serif" font-size="10.00">std::basic_string&lt;</text>
<text text-anchor="middle" x="73" y="-828" font-family="Helvetica,sans-Serif" font-size="10.00"> char &gt;</text>
<polyline fill="none" stroke="#bfbfbf" points="25.5,-821 120.5,-821 "/>
<text text-anchor="middle" x="73" y="-809" font-family="Helvetica,sans-Serif" font-size="10.00"> </text>
<polyline fill="none" stroke="#bfbfbf" points="25.5,-802 120.5,-802 "/>
<text text-anchor="middle" x="73" y="-790" font-family="Helvetica,sans-Serif" font-size="10.00"> </text>
</a>
</g>
</g>
<!-- Node4&#45;&gt;Node3 -->
<g id="edge3" class="edge"><title>Node4&#45;&gt;Node3</title>
<path fill="none" stroke="midnightblue" d="M73,-772.753C73,-724.819 73,-648.951 73,-608.512"/>
<polygon fill="none" stroke="midnightblue" points="69.5001,-772.829 73,-782.829 76.5001,-772.829 69.5001,-772.829"/>
</g>
<!-- Node5 -->
<g id="node5" class="node"><title>Node5</title>
<g id="a_node5"><a xlink:href="$classBinaryHeapWrapper.html" xlink:title="Binary (min) Heap based on std::vector. ">
<polygon fill="white" stroke="black" points="164.5,-309 164.5,-498 289.5,-498 289.5,-309 164.5,-309"/>
<text text-anchor="middle" x="227" y="-486" font-family="Helvetica,sans-Serif" font-size="10.00">BinaryHeapWrapper</text>
<polyline fill="none" stroke="black" points="164.5,-479 289.5,-479 "/>
<text text-anchor="middle" x="227" y="-467" font-family="Helvetica,sans-Serif" font-size="10.00"> </text>
<polyline fill="none" stroke="black" points="164.5,-460 289.5,-460 "/>
<text text-anchor="start" x="172.5" y="-448" font-family="Helvetica,sans-Serif" font-size="10.00">+ BinaryHeapWrapper()</text>
<text text-anchor="start" x="172.5" y="-437" font-family="Helvetica,sans-Serif" font-size="10.00">+ ~BinaryHeapWrapper()</text>
<text text-anchor="start" x="172.5" y="-426" font-family="Helvetica,sans-Serif" font-size="10.00">+ top()</text>
<text text-anchor="start" x="172.5" y="-415" font-family="Helvetica,sans-Serif" font-size="10.00">+ pop()</text>
<text text-anchor="start" x="172.5" y="-404" font-family="Helvetica,sans-Serif" font-size="10.00">+ push()</text>
<text text-anchor="start" x="172.5" y="-393" font-family="Helvetica,sans-Serif" font-size="10.00">+ push()</text>
<text text-anchor="start" x="172.5" y="-382" font-family="Helvetica,sans-Serif" font-size="10.00">+ removeFutureEvents()</text>
<text text-anchor="start" x="172.5" y="-371" font-family="Helvetica,sans-Serif" font-size="10.00">+ removeFutureEvents()</text>
<text text-anchor="start" x="172.5" y="-360" font-family="Helvetica,sans-Serif" font-size="10.00">+ clear()</text>
<text text-anchor="start" x="172.5" y="-349" font-family="Helvetica,sans-Serif" font-size="10.00">+ size()</text>
<text text-anchor="start" x="172.5" y="-338" font-family="Helvetica,sans-Serif" font-size="10.00">+ empty()</text>
<text text-anchor="start" x="172.5" y="-327" font-family="Helvetica,sans-Serif" font-size="10.00">+ print()</text>
<text text-anchor="start" x="172.5" y="-316" font-family="Helvetica,sans-Serif" font-size="10.00">+ getTopTime()</text>
</a>
</g>
</g>
<!-- Node5&#45;&gt;Node1 -->
<g id="edge4" class="edge"><title>Node5&#45;&gt;Node1</title>
<path fill="none" stroke="#404040" d="M227,-308.759C227,-295.603 227,-281.856 227,-268.077"/>
<polygon fill="none" stroke="#404040" points="227,-267.975 223,-261.975 227,-255.975 231,-261.975 227,-267.975"/>
<text text-anchor="middle" x="256.5" y="-277" font-family="Helvetica,sans-Serif" font-size="10.00"> &#45;EmptyBHW</text>
</g>
<!-- Node6 -->
<g id="node6" class="node"><title>Node6</title>
<polygon fill="white" stroke="#bfbfbf" points="170.5,-551.5 170.5,-608.5 283.5,-608.5 283.5,-551.5 170.5,-551.5"/>
<text text-anchor="middle" x="227" y="-596.5" font-family="Helvetica,sans-Serif" font-size="10.00">std::vector&lt; Event * &gt;</text>
<polyline fill="none" stroke="#bfbfbf" points="170.5,-589.5 283.5,-589.5 "/>
<text text-anchor="middle" x="227" y="-577.5" font-family="Helvetica,sans-Serif" font-size="10.00"> </text>
<polyline fill="none" stroke="#bfbfbf" points="170.5,-570.5 283.5,-570.5 "/>
<text text-anchor="middle" x="227" y="-558.5" font-family="Helvetica,sans-Serif" font-size="10.00"> </text>
</g>
<!-- Node6&#45;&gt;Node5 -->
<g id="edge5" class="edge"><title>Node6&#45;&gt;Node5</title>
<path fill="none" stroke="#404040" d="M227,-551.35C227,-539.748 227,-525.453 227,-510.379"/>
<polygon fill="none" stroke="#404040" points="227,-510.16 223,-504.16 227,-498.16 231,-504.16 227,-510.16"/>
<text text-anchor="middle" x="262" y="-525" font-family="Helvetica,sans-Serif" font-size="10.00"> &#45;heapContainer</text>
</g>
<!-- Node7 -->
<g id="node7" class="node"><title>Node7</title>
<g id="a_node7"><a xlink:href="$classEvent.html" xlink:title="The base class for all events in a simulation. ">
<polygon fill="white" stroke="black" points="163.5,-656.5 163.5,-977.5 290.5,-977.5 290.5,-656.5 163.5,-656.5"/>
<text text-anchor="middle" x="227" y="-965.5" font-family="Helvetica,sans-Serif" font-size="10.00">Event</text>
<polyline fill="none" stroke="black" points="163.5,-958.5 290.5,-958.5 "/>
<text text-anchor="start" x="171.5" y="-946.5" font-family="Helvetica,sans-Serif" font-size="10.00"># senderAgentID</text>
<text text-anchor="start" x="171.5" y="-935.5" font-family="Helvetica,sans-Serif" font-size="10.00"># receiverAgentID</text>
<text text-anchor="start" x="171.5" y="-924.5" font-family="Helvetica,sans-Serif" font-size="10.00"># sentTime</text>
<text text-anchor="start" x="171.5" y="-913.5" font-family="Helvetica,sans-Serif" font-size="10.00"># receiveTime</text>
<text text-anchor="start" x="171.5" y="-902.5" font-family="Helvetica,sans-Serif" font-size="10.00"># antiMessage</text>
<text text-anchor="start" x="171.5" y="-891.5" font-family="Helvetica,sans-Serif" font-size="10.00"># referenceCount</text>
<text text-anchor="start" x="171.5" y="-880.5" font-family="Helvetica,sans-Serif" font-size="10.00"># color</text>
<polyline fill="none" stroke="black" points="163.5,-873.5 290.5,-873.5 "/>
<text text-anchor="start" x="171.5" y="-861.5" font-family="Helvetica,sans-Serif" font-size="10.00">+ CREATE()</text>
<text text-anchor="start" x="171.5" y="-850.5" font-family="Helvetica,sans-Serif" font-size="10.00">+ getSenderAgentID()</text>
<text text-anchor="start" x="171.5" y="-839.5" font-family="Helvetica,sans-Serif" font-size="10.00">+ getReceiverAgentID()</text>
<text text-anchor="start" x="171.5" y="-828.5" font-family="Helvetica,sans-Serif" font-size="10.00">+ getSentTime()</text>
<text text-anchor="start" x="171.5" y="-817.5" font-family="Helvetica,sans-Serif" font-size="10.00">+ getReceiveTime()</text>
<text text-anchor="start" x="171.5" y="-806.5" font-family="Helvetica,sans-Serif" font-size="10.00">+ getReferenceCount()</text>
<text text-anchor="start" x="171.5" y="-795.5" font-family="Helvetica,sans-Serif" font-size="10.00">+ isAntiMessage()</text>
<text text-anchor="start" x="171.5" y="-784.5" font-family="Helvetica,sans-Serif" font-size="10.00">+ allocate()</text>
<text text-anchor="start" x="171.5" y="-773.5" font-family="Helvetica,sans-Serif" font-size="10.00">+ deallocate()</text>
<text text-anchor="start" x="171.5" y="-762.5" font-family="Helvetica,sans-Serif" font-size="10.00"># Event()</text>
<text text-anchor="start" x="171.5" y="-751.5" font-family="Helvetica,sans-Serif" font-size="10.00"># getColor()</text>
<text text-anchor="start" x="171.5" y="-740.5" font-family="Helvetica,sans-Serif" font-size="10.00"># setColor()</text>
<text text-anchor="start" x="171.5" y="-729.5" font-family="Helvetica,sans-Serif" font-size="10.00"># getEventSize()</text>
<text text-anchor="start" x="171.5" y="-718.5" font-family="Helvetica,sans-Serif" font-size="10.00"># decreaseReference()</text>
<text text-anchor="start" x="171.5" y="-707.5" font-family="Helvetica,sans-Serif" font-size="10.00"># increaseReference()</text>
<text text-anchor="start" x="171.5" y="-696.5" font-family="Helvetica,sans-Serif" font-size="10.00"># makeAntiMessage()</text>
<text text-anchor="start" x="171.5" y="-685.5" font-family="Helvetica,sans-Serif" font-size="10.00"># setReferenceCount()</text>
<text text-anchor="start" x="171.5" y="-674.5" font-family="Helvetica,sans-Serif" font-size="10.00"># ~Event()</text>
<text text-anchor="start" x="171.5" y="-663.5" font-family="Helvetica,sans-Serif" font-size="10.00">&#45; deleteRecycledEvents()</text>
</a>
</g>
</g>
<!-- Node7&#45;&gt;Node6 -->
<g id="edge6" class="edge"><title>Node7&#45;&gt;Node6</title>
<path fill="none" stroke="#404040" d="M227,-656.325C227,-643.452 227,-631.358 227,-620.786"/>
<polygon fill="none" stroke="#404040" points="227,-620.695 223,-614.695 227,-608.695 231,-614.695 227,-620.695"/>
<text text-anchor="middle" x="251.5" y="-630" font-family="Helvetica,sans-Serif" font-size="10.00"> +elements</text>
</g>
<!-- Node8 -->
<g id="node8" class="node"><title>Node8</title>
<polygon fill="white" stroke="#bfbfbf" points="158,-1025.5 158,-1093.5 296,-1093.5 296,-1025.5 158,-1025.5"/>
<text text-anchor="start" x="166" y="-1081.5" font-family="Helvetica,sans-Serif" font-size="10.00">std::unordered_map</text>
<text text-anchor="middle" x="227" y="-1070.5" font-family="Helvetica,sans-Serif" font-size="10.00">&lt; int, std::stack&lt; char * &gt; &gt;</text>
<polyline fill="none" stroke="#bfbfbf" points="158,-1063.5 296,-1063.5 "/>
<text text-anchor="start" x="166" y="-1051.5" font-family="Helvetica,sans-Serif" font-size="10.00">+ keys</text>
<polyline fill="none" stroke="#bfbfbf" points="158,-1044.5 296,-1044.5 "/>
<text text-anchor="middle" x="227" y="-1032.5" font-family="Helvetica,sans-Serif" font-size="10.00"> </text>
</g>
<!-- Node8&#45;&gt;Node7 -->
<g id="edge7" class="edge"><title>Node8&#45;&gt;Node7</title>
<path fill="none" stroke="#404040" d="M227,-1025.31C227,-1015.05 227,-1002.97 227,-989.878"/>
<polygon fill="none" stroke="#404040" points="227,-989.596 223,-983.596 227,-977.596 231,-983.596 227,-989.596"/>
<text text-anchor="middle" x="262.5" y="-999" font-family="Helvetica,sans-Serif" font-size="10.00"> &#45;EventRecycler</text>
</g>
<!-- Node9 -->
<g id="node9" class="node"><title>Node9</title>
<polygon fill="white" stroke="#bfbfbf" points="175,-1141.5 175,-1198.5 279,-1198.5 279,-1141.5 175,-1141.5"/>
<text text-anchor="middle" x="227" y="-1186.5" font-family="Helvetica,sans-Serif" font-size="10.00">std::stack&lt; char * &gt;</text>
<polyline fill="none" stroke="#bfbfbf" points="175,-1179.5 279,-1179.5 "/>
<text text-anchor="start" x="183" y="-1167.5" font-family="Helvetica,sans-Serif" font-size="10.00">+ elements</text>
<polyline fill="none" stroke="#bfbfbf" points="175,-1160.5 279,-1160.5 "/>
<text text-anchor="middle" x="227" y="-1148.5" font-family="Helvetica,sans-Serif" font-size="10.00"> </text>
</g>
<!-- Node9&#45;&gt;Node8 -->
<g id="edge8" class="edge"><title>Node9&#45;&gt;Node8</title>
<path fill="none" stroke="#404040" d="M227,-1141.34C227,-1130.53 227,-1117.85 227,-1105.77"/>
<polygon fill="none" stroke="#404040" points="227,-1105.52 223,-1099.52 227,-1093.52 231,-1099.52 227,-1105.52"/>
<text text-anchor="middle" x="251.5" y="-1115" font-family="Helvetica,sans-Serif" font-size="10.00"> +elements</text>
</g>
<!-- Node10 -->
<g id="node10" class="node"><title>Node10</title>
<polygon fill="white" stroke="#bfbfbf" points="308,-369.5 308,-437.5 410,-437.5 410,-369.5 308,-369.5"/>
<text text-anchor="start" x="316" y="-425.5" font-family="Helvetica,sans-Serif" font-size="10.00">std::vector&lt; muse::</text>
<text text-anchor="middle" x="359" y="-414.5" font-family="Helvetica,sans-Serif" font-size="10.00">Agent * &gt;</text>
<polyline fill="none" stroke="#bfbfbf" points="308,-407.5 410,-407.5 "/>
<text text-anchor="start" x="316" y="-395.5" font-family="Helvetica,sans-Serif" font-size="10.00">+ elements</text>
<polyline fill="none" stroke="#bfbfbf" points="308,-388.5 410,-388.5 "/>
<text text-anchor="middle" x="359" y="-376.5" font-family="Helvetica,sans-Serif" font-size="10.00"> </text>
</g>
<!-- Node10&#45;&gt;Node1 -->
<g id="edge9" class="edge"><title>Node10&#45;&gt;Node1</title>
<path fill="none" stroke="#404040" d="M342.946,-369.237C330.323,-343.082 311.829,-304.763 293.303,-266.378"/>
<polygon fill="none" stroke="#404040" points="293.298,-266.367 287.088,-262.702 288.082,-255.56 294.292,-259.225 293.298,-266.367"/>
<text text-anchor="middle" x="324" y="-277" font-family="Helvetica,sans-Serif" font-size="10.00"> &#45;agentList</text>
</g>
</g>
</svg>
